<?xml version="1.0" encoding="UTF-8" standalone="no"?>
<!-- Created with Inkscape (http://www.inkscape.org/) -->

<svg
   xmlns:dc="http://purl.org/dc/elements/1.1/"
   xmlns:cc="http://creativecommons.org/ns#"
   xmlns:rdf="http://www.w3.org/1999/02/22-rdf-syntax-ns#"
   xmlns:svg="http://www.w3.org/2000/svg"
   xmlns="http://www.w3.org/2000/svg"
   xmlns:sodipodi="http://sodipodi.sourceforge.net/DTD/sodipodi-0.dtd"
   xmlns:inkscape="http://www.inkscape.org/namespaces/inkscape"
   width="701.07959"
   height="444.62131"
   id="svg2"
   version="1.1"
   inkscape:version="0.48.4 r9939"
   sodipodi:docname="arcos-da-lapa.svg">
  <defs
     id="defs4" />
  <sodipodi:namedview
     id="base"
     pagecolor="#ffffff"
     bordercolor="#666666"
     borderopacity="1.0"
     inkscape:pageopacity="0.0"
     inkscape:pageshadow="2"
     inkscape:zoom="0.7"
     inkscape:cx="227.76205"
     inkscape:cy="174.14492"
     inkscape:document-units="px"
     inkscape:current-layer="layer1"
     showgrid="false"
     inkscape:window-width="1024"
     inkscape:window-height="713"
     inkscape:window-x="0"
     inkscape:window-y="30"
     inkscape:window-maximized="1"
     fit-margin-top="5"
     fit-margin-left="5"
     fit-margin-right="5"
     fit-margin-bottom="5" />
  <metadata
     id="metadata7">
    <rdf:RDF>
      <cc:Work
         rdf:about="">
        <dc:format>image/svg+xml</dc:format>
        <dc:type
           rdf:resource="http://purl.org/dc/dcmitype/StillImage" />
        <dc:title />
      </cc:Work>
    </rdf:RDF>
  </metadata>
  <g
     inkscape:label="Layer 1"
     inkscape:groupmode="layer"
     id="layer1"
     transform="translate(56.214286,-35.433611)">
    <path
       style="fill:#ffc536;stroke:none;stroke-width:1px;stroke-linecap:butt;stroke-linejoin:miter;stroke-opacity:1;fill-opacity:1"
       d="m -50.714286,217.71933 0,-10.35715 L 637.5,40.933611 l 0,21.071429 z"
       id="path3031"
       inkscape:connector-curvature="0"
       sodipodi:nodetypes="ccccc" />
    <path
       style="fill:#f8b500;stroke:none;stroke-width:1;stroke-linecap:butt;stroke-linejoin:miter;stroke-miterlimit:4;stroke-opacity:1;stroke-dasharray:none;fill-opacity:1"
       d="M -50.507627,226.0574 637.40626,73.524366 l 1.01015,32.324884 c 0,0 -16.83648,-3.57283 -40.4061,1.01015 -72.73098,14.14213 -69.70053,97.9848 -69.70053,97.9848 l -26.26396,3.03045 c 0,0 6.06091,-71.72083 -56.56855,-69.70052 -62.62946,2.0203 -67.68022,89.90358 -67.68022,89.90358 l -20.20305,2.0203 c 0,0 4.93835,-72.52533 -48.48733,-64.64976 -53.43901,7.87753 -52.52792,78.7919 -52.52792,78.7919 L 238.396,247.2706 c 0,0 7.07107,-63.63961 -36.36549,-59.599 -43.43656,4.04061 -46.46702,69.70053 -46.46702,69.70053 l -13.13198,3.03045 c 0,0 8.05924,-57.96005 -30.30458,-55.55838 -37.325669,2.33668 -34.345184,63.63961 -34.345184,63.63961 l -13.131983,2.0203 c 0,0 8.08122,-48.48732 -22.223356,-48.48732 -30.304576,0 -35.3553392,55.55839 -35.3553392,55.55839 l -15.1522882,0 c 0,0 7.0710678,-47.47716 -14.1421356,-44.44671 -27.459062,3.92272 -28.284271,48.48732 -28.284271,48.48732 z"
       id="path3033"
       inkscape:connector-curvature="0"
       sodipodi:nodetypes="cccsccsccsccsccsccsccscc" />
    <path
       style="fill:#ee8f00;stroke:none;stroke-width:1;stroke-linecap:butt;stroke-linejoin:miter;stroke-miterlimit:4;stroke-opacity:1;stroke-dasharray:none;fill-opacity:1"
       d="m -43.43656,291.71732 27.274119,3.03045 3.030458,58.58885 -30.304577,-1.01015 z"
       id="path3035"
       inkscape:connector-curvature="0"
       sodipodi:nodetypes="ccccc" />
    <path
       style="fill:#f7aa00;stroke:none;stroke-width:1;stroke-linecap:butt;stroke-linejoin:miter;stroke-miterlimit:4;stroke-opacity:1;stroke-dasharray:none;fill-opacity:1"
       d="m -9.0913729,286.66655 16.1624407,0 3.0304572,65.65992 -17.1725928,0 z"
       id="path3037"
       inkscape:connector-curvature="0" />
    <path
       style="fill:#ee8f00;stroke:none;stroke-width:1;stroke-linecap:butt;stroke-linejoin:miter;stroke-miterlimit:4;stroke-opacity:1;stroke-dasharray:none;fill-opacity:1"
       d="m 16.162441,286.66655 31.314728,2.02031 3.030458,62.62946 -31.314729,-1e-5 z"
       id="path3039"
       inkscape:connector-curvature="0"
       sodipodi:nodetypes="ccccc" />
    <path
       style="fill:#f7aa00;stroke:none;stroke-width:1;stroke-linecap:butt;stroke-linejoin:miter;stroke-miterlimit:4;stroke-opacity:1;stroke-dasharray:none;fill-opacity:1"
       d="m 61.619305,279.59548 14.142136,-1.01014 0,71.72082 -13.131983,0 z"
       id="path3041"
       inkscape:connector-curvature="0"
       sodipodi:nodetypes="ccccc" />
    <path
       style="fill:#ee8f00;stroke:none;stroke-width:1;stroke-linecap:butt;stroke-linejoin:miter;stroke-miterlimit:4;stroke-opacity:1;stroke-dasharray:none;fill-opacity:1"
       d="m 83.842661,278.58533 27.274119,3.03046 3.03046,68.69037 -30.304579,-1.01015 z"
       id="path3043"
       inkscape:connector-curvature="0" />
    <path
       style="fill:#f7aa00;stroke:none;stroke-width:1;stroke-linecap:butt;stroke-linejoin:miter;stroke-miterlimit:4;stroke-opacity:1;stroke-dasharray:none;fill-opacity:1"
       d="m 139.40105,268.48381 14.14213,-3.03046 1.01016,82.83251 -15.15229,0 z"
       id="path3045"
       inkscape:connector-curvature="0"
       sodipodi:nodetypes="ccccc" />
    <path
       style="fill:#ee8f00;stroke:none;stroke-width:1;stroke-linecap:butt;stroke-linejoin:miter;stroke-miterlimit:4;stroke-opacity:1;stroke-dasharray:none;fill-opacity:1"
       d="m 162.63455,268.48381 33.33504,2.0203 0,74.75129 -32.32487,2.02031 z"
       id="path3047"
       inkscape:connector-curvature="0"
       sodipodi:nodetypes="ccccc" />
    <path
       style="fill:#f7aa00;stroke:none;stroke-width:1;stroke-linecap:butt;stroke-linejoin:miter;stroke-miterlimit:4;stroke-opacity:1;stroke-dasharray:none;fill-opacity:1"
       d="m 236.3757,256.36198 20.20305,-4.04062 2.0203,90.91374 -22.22335,1.01015 z"
       id="path3049"
       inkscape:connector-curvature="0"
       sodipodi:nodetypes="ccccc" />
    <path
       style="fill:#ee8f00;stroke:none;stroke-width:1;stroke-linecap:butt;stroke-linejoin:miter;stroke-miterlimit:4;stroke-opacity:1;stroke-dasharray:none;fill-opacity:1"
       d="m 265.67012,254.34167 27.27412,3.03046 0,83.84266 -26.26396,1.01016 z"
       id="path3051"
       inkscape:connector-curvature="0"
       sodipodi:nodetypes="ccccc" />
    <path
       style="fill:#f7aa00;stroke:none;stroke-width:1;stroke-linecap:butt;stroke-linejoin:miter;stroke-miterlimit:4;stroke-opacity:1;stroke-dasharray:none;fill-opacity:1"
       d="m 351.53309,239.18938 25.25381,-1.01015 0,103.03556 -24.24366,0 z"
       id="path3053"
       inkscape:connector-curvature="0"
       sodipodi:nodetypes="ccccc" />
    <path
       style="fill:#ee8f00;stroke:none;stroke-width:1;stroke-linecap:butt;stroke-linejoin:miter;stroke-miterlimit:4;stroke-opacity:1;stroke-dasharray:none;fill-opacity:1"
       d="m 385.87828,237.16908 32.32487,9.09137 0,89.90358 -34.34519,1.01015 z"
       id="path3055"
       inkscape:connector-curvature="0"
       sodipodi:nodetypes="ccccc" />
    <path
       style="fill:#f7aa00;stroke:none;stroke-width:1;stroke-linecap:butt;stroke-linejoin:miter;stroke-miterlimit:4;stroke-opacity:1;stroke-dasharray:none;fill-opacity:1"
       d="m 498.0052,216.96603 33.33504,-2.02031 1.01015,115.15739 -32.32488,2.02031 z"
       id="path3057"
       inkscape:connector-curvature="0"
       sodipodi:nodetypes="ccccc" />
    <path
       style="fill:#ee8f00;stroke:none;stroke-width:1;stroke-linecap:butt;stroke-linejoin:miter;stroke-miterlimit:4;stroke-opacity:1;stroke-dasharray:none;fill-opacity:1"
       d="m 541.44176,215.95588 22.22336,7.07106 3.03046,103.03556 -23.23351,2.02031 z"
       id="path3059"
       inkscape:connector-curvature="0" />
    <path
       sodipodi:nodetypes="cccsccsccsccsccsccsccscc"
       inkscape:connector-curvature="0"
       id="path3061"
       d="m -48.487322,362.5173 686.842462,-31.08205 1.01015,31.43388 c 0,0 -15.57315,-8.304 -38.97753,-5.49314 -72.0272,8.65045 -61.97644,72.16785 -61.97644,72.16785 l -34.34519,-0.65083 c 0,0 -7.96532,-63.37804 -58.58886,-65.66301 -69.14853,-3.12113 -64.64976,63.67197 -64.64976,63.67197 l -28.28427,-0.57834 c 0,0 -7.23043,-60.95067 -55.5584,-58.15858 -45.34418,2.61969 -41.41624,56.27703 -41.41624,56.27703 l -20.68275,-0.21746 c 0,0 -6.59137,-50.2547 -37.9061,-52.96285 -43.4333,-3.7562 -39.98769,48.74801 -39.98769,48.74801 l -20.62146,-0.80512 c 0,0 0.98817,-45.40878 -31.31473,-45.81929 -37.573033,-0.47749 -31.314734,43.36252 -31.314734,43.36252 l -13.131983,-0.32541 c 0,0 -2.020306,-39.97274 -27.274119,-41.34532 -30.738883,-1.6707 -25.2538141,35.10085 -25.2538141,35.10085 l -18.1827449,0.32387 c 0,0 2.0318146,-33.54542 -19.192899,-33.84089 -19.244776,-0.2679 -19.192898,29.29287 -19.192898,29.29287 z"
       style="fill:#f8b500;stroke:none;stroke-width:1;stroke-linecap:butt;stroke-linejoin:miter;stroke-miterlimit:4;stroke-opacity:1;stroke-dasharray:none;fill-opacity:1" />
    <path
       style="fill:#f7aa00;stroke:none;stroke-width:1;stroke-linecap:butt;stroke-linejoin:miter;stroke-miterlimit:4;stroke-opacity:1;stroke-dasharray:none;fill-opacity:1"
       d="m -10.458668,416.55781 -1.846991,25.67224 26.570347,-1.3673 -4.163163,-24.66208 z"
       id="path3082"
       inkscape:connector-curvature="0"
       sodipodi:nodetypes="ccccc" />
    <path
       style="fill:#ee8f00;stroke:none;stroke-width:1;stroke-linecap:butt;stroke-linejoin:miter;stroke-miterlimit:4;stroke-opacity:1;stroke-dasharray:none;fill-opacity:1"
       d="m 16.039889,418.22098 2.142857,24.00907 34.345186,0 -0.714286,-23.35607 z"
       id="path3084"
       inkscape:connector-curvature="0"
       sodipodi:nodetypes="ccccc" />
    <path
       style="fill:#f7aa00;stroke:none;stroke-width:1;stroke-linecap:butt;stroke-linejoin:miter;stroke-miterlimit:4;stroke-opacity:1;stroke-dasharray:none;fill-opacity:1"
       d="m 58.343744,421.5473 -0.775563,22.34591 22.23387,0.35714 0,-21.2132 z"
       id="path3086"
       inkscape:connector-curvature="0"
       sodipodi:nodetypes="ccccc" />
    <path
       style="fill:#ee8f00;stroke:none;stroke-width:1;stroke-linecap:butt;stroke-linejoin:miter;stroke-miterlimit:4;stroke-opacity:1;stroke-dasharray:none;fill-opacity:1"
       d="m 84.495671,422.91459 0.357143,22.94816 46.467016,1.01016 -0.71429,-22.94817 z"
       id="path3088"
       inkscape:connector-curvature="0"
       sodipodi:nodetypes="ccccc" />
    <path
       style="fill:#f7aa00;stroke:none;stroke-width:1;stroke-linecap:butt;stroke-linejoin:miter;stroke-miterlimit:4;stroke-opacity:1;stroke-dasharray:none;fill-opacity:1"
       d="m 135.8909,423.92474 1.48985,25.85607 24.72335,0.29586 -1.48985,-24.48876 z"
       id="path3090"
       inkscape:connector-curvature="0"
       sodipodi:nodetypes="ccccc" />
    <path
       style="fill:#ee8f00;stroke:none;stroke-width:1;stroke-linecap:butt;stroke-linejoin:miter;stroke-miterlimit:4;stroke-opacity:1;stroke-dasharray:none;fill-opacity:1"
       d="m 166.67517,426.0676 1.55112,27.22336 52.63998,-0.71429 -7.72408,-26.39703 z"
       id="path3092"
       inkscape:connector-curvature="0"
       sodipodi:nodetypes="ccccc" />
    <path
       style="fill:#f7aa00;stroke:none;stroke-width:1;stroke-linecap:butt;stroke-linejoin:miter;stroke-miterlimit:4;stroke-opacity:1;stroke-dasharray:none;fill-opacity:1"
       d="m 230.54938,428.3225 2.79586,27.03953 29.29442,0 -6.12219,-27.03953 z"
       id="path3094"
       inkscape:connector-curvature="0"
       sodipodi:nodetypes="ccccc" />
    <path
       style="fill:#ee8f00;stroke:none;stroke-width:1;stroke-linecap:butt;stroke-linejoin:miter;stroke-miterlimit:4;stroke-opacity:1;stroke-dasharray:none;fill-opacity:1"
       d="m 261.6295,428.08791 6.88724,26.55983 54.73207,0.71429 -11.11167,-27.27412 z"
       id="path3096"
       inkscape:connector-curvature="0"
       sodipodi:nodetypes="ccccc" />
    <path
       style="fill:#f7aa00;stroke:none;stroke-width:1;stroke-linecap:butt;stroke-linejoin:miter;stroke-miterlimit:4;stroke-opacity:1;stroke-dasharray:none;fill-opacity:1"
       d="m 348.50264,431.11836 6.0609,28.28428 36.3655,5.05077 -6.06092,-32.32489 z"
       id="path3098"
       inkscape:connector-curvature="0"
       sodipodi:nodetypes="ccccc" />
    <path
       style="fill:#ee8f00;stroke:none;stroke-width:1;stroke-linecap:butt;stroke-linejoin:miter;stroke-miterlimit:4;stroke-opacity:1;stroke-dasharray:none;fill-opacity:1"
       d="m 389.91888,433.13867 6.06092,31.31473 46.46702,2.02031 -5.05077,-33.33504 z"
       id="path3100"
       inkscape:connector-curvature="0"
       sodipodi:nodetypes="ccccc" />
    <path
       style="fill:#f7aa00;stroke:none;stroke-width:1;stroke-linecap:butt;stroke-linejoin:miter;stroke-miterlimit:4;stroke-opacity:1;stroke-dasharray:none;fill-opacity:1"
       d="m 501.03566,435.15898 4.04061,36.36549 42.42641,2.0203 -9.09137,-36.36549 z"
       id="path3102"
       inkscape:connector-curvature="0"
       sodipodi:nodetypes="ccccc" />
    <path
       style="fill:#ee8f00;stroke:none;stroke-width:1;stroke-linecap:butt;stroke-linejoin:miter;stroke-miterlimit:4;stroke-opacity:1;stroke-dasharray:none;fill-opacity:1"
       d="m 547.50267,437.17928 5.05077,35.35534 37.37565,2.02031 -9.09138,-39.39596 z"
       id="path3104"
       inkscape:connector-curvature="0"
       sodipodi:nodetypes="ccccc" />
    <path
       style="fill:#e07700;stroke:none;stroke-width:1;stroke-linecap:butt;stroke-linejoin:miter;stroke-miterlimit:4;stroke-opacity:1;stroke-dasharray:none;fill-opacity:1"
       d="m 14.285715,413.07647 37.142857,1.07143 c 0,0 -1.428572,-11.42858 1.428571,-11.07143 2.857143,0.35714 -3.209043,-21.90914 -18.571429,-22.5 -27.857143,-1.07143 -19.999999,32.5 -19.999999,32.5 z"
       id="path3106"
       inkscape:connector-curvature="0"
       sodipodi:nodetypes="ccssc" />
    <path
       sodipodi:nodetypes="ccssc"
       inkscape:connector-curvature="0"
       id="path3108"
       d="m 78.928573,417.36218 44.642857,1.78572 c 0,0 -1.42857,-16.42858 1.42857,-16.07143 2.85715,0.35714 -1.84003,-21.02503 -19.28571,-22.5 -29.674368,-2.50886 -26.785717,36.78571 -26.785717,36.78571 z"
       style="fill:#e07700;stroke:none;stroke-width:1;stroke-linecap:butt;stroke-linejoin:miter;stroke-miterlimit:4;stroke-opacity:1;stroke-dasharray:none;fill-opacity:1" />
    <path
       style="fill:#e07700;stroke:none;stroke-width:1;stroke-linecap:butt;stroke-linejoin:miter;stroke-miterlimit:4;stroke-opacity:1;stroke-dasharray:none;fill-opacity:1"
       d="m 162.5,420.21932 45,0.35715 c 0,0 -7.03667,-22.8288 3.92857,-31.78572 -2.85714,-7.14285 -11.56946,-10.0515 -23.92857,-8.57143 -25.29932,3.02974 -25,40 -25,40 z"
       id="path3110"
       inkscape:connector-curvature="0"
       sodipodi:nodetypes="cccsc" />
    <path
       sodipodi:nodetypes="cccsc"
       inkscape:connector-curvature="0"
       id="path3112"
       d="m 262.85714,423.79075 45,0.35715 c 0,0 -8.1081,-26.75737 14.28571,-40.71429 -2.85714,-7.14285 -21.51987,-9.62081 -33.21428,-5.35715 -32.79932,11.95832 -26.07143,45.71429 -26.07143,45.71429 z"
       style="fill:#e07700;stroke:none;stroke-width:1;stroke-linecap:butt;stroke-linejoin:miter;stroke-miterlimit:4;stroke-opacity:1;stroke-dasharray:none;fill-opacity:1" />
    <path
       style="fill:#e07700;stroke:none;stroke-width:1;stroke-linecap:butt;stroke-linejoin:miter;stroke-miterlimit:4;stroke-opacity:1;stroke-dasharray:none;fill-opacity:1"
       d="M 391.78571,426.64789 430,426.6479 c 0,0 -7.03668,-32.68594 27.49999,-53.07144 -10.71428,-4.99999 -24.73415,-5.12081 -39.64285,1.28571 -32.0752,13.78326 -26.07143,51.78572 -26.07143,51.78572 z"
       id="path3114"
       inkscape:connector-curvature="0"
       sodipodi:nodetypes="cccsc" />
    <path
       style="fill:#e07700;stroke:none;stroke-width:1;stroke-linecap:butt;stroke-linejoin:miter;stroke-miterlimit:4;stroke-opacity:1;stroke-dasharray:none;fill-opacity:1"
       d="m 545,430.57647 34.28572,-2.14286 c 0,0 -8.57143,-43.57143 47.85714,-64.64286 C 563.61172,351.03897 545.87907,400.17924 545,430.57647 z"
       id="path3116"
       inkscape:connector-curvature="0"
       sodipodi:nodetypes="cccc" />
    <path
       style="fill:#e07700;stroke:none;stroke-width:1;stroke-linecap:butt;stroke-linejoin:miter;stroke-miterlimit:4;stroke-opacity:1;stroke-dasharray:none;fill-opacity:1"
       d="m 538.92857,203.07647 24.64286,8.92857 c -0.11093,-53.67678 27.55313,-77.80568 72.14286,-83.92857 L 635,114.1479 c -53.29207,1.02739 -94.78925,17.92425 -96.07143,88.92857 z"
       id="path3118"
       inkscape:connector-curvature="0"
       sodipodi:nodetypes="ccccc" />
    <path
       style="fill:#e07700;stroke:none;stroke-width:1;stroke-linecap:butt;stroke-linejoin:miter;stroke-miterlimit:4;stroke-opacity:1;stroke-dasharray:none;fill-opacity:1"
       d="M 386.07143,226.64789 415,235.21932 c -2.31685,-47.08458 20.08656,-71.6962 59.64286,-80.71428 -29.32388,-23.64479 -84.04944,-4.02097 -88.57143,72.14285 z"
       id="path3120"
       inkscape:connector-curvature="0"
       sodipodi:nodetypes="cccc" />
    <path
       style="fill:#e07700;stroke:none;stroke-width:1;stroke-linecap:butt;stroke-linejoin:miter;stroke-miterlimit:4;stroke-opacity:1;stroke-dasharray:none;fill-opacity:1"
       d="m 264.28571,246.29076 27.14286,3.92857 c -0.23338,-38.09179 17.82352,-54.67546 42.14286,-70.71429 -5.58,-5.50186 -27.62001,-10.10449 -44.20929,2.54108 -13.02907,9.93171 -24.87072,28.6108 -25.07643,64.24464 z"
       id="path3122"
       inkscape:connector-curvature="0"
       sodipodi:nodetypes="cccsc" />
    <path
       style="fill:#e07700;stroke:none;stroke-width:1;stroke-linecap:butt;stroke-linejoin:miter;stroke-miterlimit:4;stroke-opacity:1;stroke-dasharray:none;fill-opacity:1"
       d="m 162.85714,260.93361 30.35714,2.14286 c 0.0936,-37.0474 15.47857,-49.45121 28.57144,-61.42858 -10.63658,-4.51308 -23.99985,-4.08607 -34.32296,2.92016 -21.25598,14.42632 -24.76929,32.82534 -24.60562,56.36556 z"
       id="path3124"
       inkscape:connector-curvature="0"
       sodipodi:nodetypes="cccsc" />
    <path
       style="fill:#e07700;stroke:none;stroke-width:1;stroke-linecap:butt;stroke-linejoin:miter;stroke-miterlimit:4;stroke-opacity:1;stroke-dasharray:none;fill-opacity:1"
       d="M 83.928572,270.21932 110,274.1479 c 0.97082,-20.2884 6.79016,-38.15254 21.07143,-51.78572 -13.24714,-12.80381 -27.64732,-8.34454 -35.304059,0.46331 -9.787306,11.25872 -10.663736,26.05348 -11.838799,47.39383 z"
       id="path3126"
       inkscape:connector-curvature="0"
       sodipodi:nodetypes="cccsc" />
    <path
       style="fill:#e07700;stroke:none;stroke-width:1;stroke-linecap:butt;stroke-linejoin:miter;stroke-miterlimit:4;stroke-opacity:1;stroke-dasharray:none;fill-opacity:1"
       d="M -43.928571,282.71932 -17.5,287.36218 c 0,0 1.071429,-13.57143 4.642857,-14.64286 3.5714287,-1.07142 2.433811,-27.96504 -3.571428,-30.35714 -22.058351,-8.78662 -27.5,40.35714 -27.5,40.35714 z"
       id="path3128"
       inkscape:connector-curvature="0"
       sodipodi:nodetypes="ccssc" />
    <path
       style="fill:#e07700;stroke:none;stroke-width:1;stroke-linecap:butt;stroke-linejoin:miter;stroke-miterlimit:4;stroke-opacity:1;stroke-dasharray:none;fill-opacity:1"
       d="m 15.714286,277.71932 30.714286,3.57143 c -1.12285,-15.83009 3.392279,-29.40499 11.785714,-41.42857 0,0 -11.834328,-22.02541 -28.928572,-3.21428 -9.696844,10.67076 -12.583163,25.61317 -13.571428,41.07142 z"
       id="path3130"
       inkscape:connector-curvature="0"
       sodipodi:nodetypes="cccsc" />
    <path
       sodipodi:type="arc"
       style="fill:#ee8f00;stroke:none;stroke-width:1;stroke-linejoin:round;stroke-miterlimit:4;stroke-opacity:1;stroke-dasharray:none;fill-opacity:1"
       id="path3902"
       sodipodi:cx="2.6785715"
       sodipodi:cy="237.54076"
       sodipodi:rx="5.1785712"
       sodipodi:ry="6.9642859"
       d="m 7.8571427,237.54076 c 0,3.84627 -2.3185253,6.96428 -5.1785712,6.96428 -2.86004595,0 -5.1785713,-3.11801 -5.1785713,-6.96428 0,-3.84627 2.31852535,-6.96429 5.1785713,-6.96429 2.8600459,0 5.1785712,3.11802 5.1785712,6.96429 z"
       transform="translate(-1.4285714,-1.7857143)" />
    <path
       transform="matrix(1.3349282,0,0,1.3349282,68.031443,-94.916247)"
       d="m 7.8571427,237.54076 c 0,3.84627 -2.3185253,6.96428 -5.1785712,6.96428 -2.86004595,0 -5.1785713,-3.11801 -5.1785713,-6.96428 0,-3.84627 2.31852535,-6.96429 5.1785713,-6.96429 2.8600459,0 5.1785712,3.11802 5.1785712,6.96429 z"
       sodipodi:ry="6.9642859"
       sodipodi:rx="5.1785712"
       sodipodi:cy="237.54076"
       sodipodi:cx="2.6785715"
       id="path3906"
       style="fill:#ee8f00;stroke:none;stroke-width:0.74910396000000001;stroke-linejoin:round;stroke-miterlimit:4;stroke-opacity:1;stroke-dasharray:none;fill-opacity:1"
       sodipodi:type="arc" />
    <path
       sodipodi:type="arc"
       style="fill:#ee8f00;stroke:none;stroke-width:0.55145120999999997;stroke-linejoin:round;stroke-miterlimit:4;stroke-opacity:1;stroke-dasharray:none;fill-opacity:1"
       id="path3908"
       sodipodi:cx="2.6785715"
       sodipodi:cy="237.54076"
       sodipodi:rx="5.1785712"
       sodipodi:ry="6.9642859"
       d="m 7.8571427,237.54076 c 0,3.84627 -2.3185253,6.96428 -5.1785712,6.96428 -2.86004595,0 -5.1785713,-3.11801 -5.1785713,-6.96428 0,-3.84627 2.31852535,-6.96429 5.1785713,-6.96429 2.8600459,0 5.1785712,3.11802 5.1785712,6.96429 z"
       transform="matrix(1.8133971,0,0,1.8133971,146.39269,-222.85782)" />
    <path
       transform="matrix(1.8133971,0,0,1.8133971,244.24983,-242.14353)"
       d="m 7.8571427,237.54076 c 0,3.84627 -2.3185253,6.96428 -5.1785712,6.96428 -2.86004595,0 -5.1785713,-3.11801 -5.1785713,-6.96428 0,-3.84627 2.31852535,-6.96429 5.1785713,-6.96429 2.8600459,0 5.1785712,3.11802 5.1785712,6.96429 z"
       sodipodi:ry="6.9642859"
       sodipodi:rx="5.1785712"
       sodipodi:cy="237.54076"
       sodipodi:cx="2.6785715"
       id="path3910"
       style="fill:#ee8f00;stroke:none;stroke-width:0.55145120999999997;stroke-linejoin:round;stroke-miterlimit:4;stroke-opacity:1;stroke-dasharray:none;fill-opacity:1"
       sodipodi:type="arc" />
    <path
       sodipodi:type="arc"
       style="fill:#ee8f00;stroke:none;stroke-width:0.41890872000000001;stroke-linejoin:round;stroke-miterlimit:4;stroke-opacity:1;stroke-dasharray:none;fill-opacity:1"
       id="path3912"
       sodipodi:cx="2.6785715"
       sodipodi:cy="237.54076"
       sodipodi:rx="5.1785712"
       sodipodi:ry="6.9642859"
       d="m 7.8571427,237.54076 c 0,3.84627 -2.3185253,6.96428 -5.1785712,6.96428 -2.86004595,0 -5.1785713,-3.11801 -5.1785713,-6.96428 0,-3.84627 2.31852535,-6.96429 5.1785713,-6.96429 2.8600459,0 5.1785712,3.11802 5.1785712,6.96429 z"
       transform="matrix(2.5511033,0,0,2.2337427,362.80955,-364.49273)" />
    <path
       transform="matrix(2.6087214,0,0,2.404792,508.3695,-434.94535)"
       d="m 7.8571427,237.54076 c 0,3.84627 -2.3185253,6.96428 -5.1785712,6.96428 -2.86004595,0 -5.1785713,-3.11801 -5.1785713,-6.96428 0,-3.84627 2.31852535,-6.96429 5.1785713,-6.96429 2.8600459,0 5.1785712,3.11802 5.1785712,6.96429 z"
       sodipodi:ry="6.9642859"
       sodipodi:rx="5.1785712"
       sodipodi:cy="237.54076"
       sodipodi:cx="2.6785715"
       id="path3914"
       style="fill:#ee8f00;stroke:none;stroke-width:0.39925227000000002;stroke-linejoin:round;stroke-miterlimit:4;stroke-opacity:1;stroke-dasharray:none;fill-opacity:1"
       sodipodi:type="arc" />
    <path
       sodipodi:nodetypes="ccssc"
       inkscape:connector-curvature="0"
       id="path3948"
       d="m -45.714286,407.00503 30,2.50001 c 0,0 -1.785714,-5.35715 1.785714,-6.42858 3.571429,-1.07142 -2.209046,-18.32218 -8.214285,-20.71428 -22.058351,-8.78662 -23.571429,24.64285 -23.571429,24.64285 z"
       style="fill:#e07700;stroke:none;stroke-width:1;stroke-linecap:butt;stroke-linejoin:miter;stroke-miterlimit:4;stroke-opacity:1;stroke-dasharray:none;fill-opacity:1" />
    <path
       sodipodi:nodetypes="ccccc"
       inkscape:connector-curvature="0"
       id="path3950"
       d="m -45.745825,411.07812 1.428571,29.00907 28.988043,1.42857 1.428571,-27.28464 z"
       style="fill:#ee8f00;stroke:none;stroke-width:1;stroke-linecap:butt;stroke-linejoin:miter;stroke-miterlimit:4;stroke-opacity:1;stroke-dasharray:none;fill-opacity:1" />
  </g>
</svg>
