<?xml version="1.0" encoding="UTF-8" standalone="no"?>
<!-- Created with Inkscape (http://www.inkscape.org/) -->

<svg
   xmlns:dc="http://purl.org/dc/elements/1.1/"
   xmlns:cc="http://creativecommons.org/ns#"
   xmlns:rdf="http://www.w3.org/1999/02/22-rdf-syntax-ns#"
   xmlns:svg="http://www.w3.org/2000/svg"
   xmlns="http://www.w3.org/2000/svg"
   xmlns:sodipodi="http://sodipodi.sourceforge.net/DTD/sodipodi-0.dtd"
   xmlns:inkscape="http://www.inkscape.org/namespaces/inkscape"
   inkscape:version="0.48.4 r9939"
   version="1.1"
   id="svg4145"
   height="274"
   width="534"
   sodipodi:docname="copacabana.svg">
  <sodipodi:namedview
     id="base"
     pagecolor="#ffffff"
     bordercolor="#666666"
     borderopacity="1.0"
     inkscape:pageopacity="0.0"
     inkscape:pageshadow="2"
     inkscape:zoom="0.35"
     inkscape:cx="558.11338"
     inkscape:cy="-102.67023"
     inkscape:document-units="px"
     inkscape:current-layer="layer1"
     showgrid="false"
     showguides="true"
     inkscape:guide-bbox="true"
     inkscape:window-width="1024"
     inkscape:window-height="713"
     inkscape:window-x="0"
     inkscape:window-y="30"
     inkscape:window-maximized="1"
     fit-margin-top="5"
     fit-margin-left="5"
     fit-margin-right="5"
     fit-margin-bottom="5" />
  <defs
     id="defs4147">
    <linearGradient
       id="linearGradient5269">
      <stop
         id="stop5271"
         offset="0"
         style="stop-color:#9a211f;stop-opacity:1;" />
      <stop
         id="stop5273"
         offset="1"
         style="stop-color:#a0221f;stop-opacity:1;" />
    </linearGradient>
  </defs>
  <metadata
     id="metadata4150">
    <rdf:RDF>
      <cc:Work
         rdf:about="">
        <dc:format>image/svg+xml</dc:format>
        <dc:type
           rdf:resource="http://purl.org/dc/dcmitype/StillImage" />
        <dc:title />
      </cc:Work>
    </rdf:RDF>
  </metadata>
  <g
     transform="translate(307.87426,-703.27405)"
     inkscape:label="Layer 1"
     inkscape:groupmode="layer"
     id="layer1">
    <g
       id="g3768">
      <path
         inkscape:connector-curvature="0"
         id="path6691"
         d="M-260.38863542 797.47422731C-261.142219555 797.461731107 -261.683827946 797.626908188 -261.683827946 797.626908188C-261.683827946 797.626908188 -272.657522362 825.683269181 -272.657522362 825.683269181C-272.657522362 825.683269181 -261.103667526 828.148769999 -270.159677642 852.518183148C-281.737706633 883.674284053 -266.146501887 882.750360257 -266.146501887 882.750360257C-266.146501887 882.750360257 -266.133259746 882.712871648 -266.133259746 882.712871648C-263.849638068 883.063560541 -251.635696344 883.094687446 -239.91689953 847.441998354C-233.75933789 828.708486284 -221.858215162 826.416341879 -220.577946625 826.218333865C-219.392373894 826.422817184 -208.960626172 828.738136365 -214.385631616 847.441998354C-225.286054464 885.02330595 -211.142244704 882.968703001 -209.726582526 882.674587827C-208.44022937 882.972906269 -195.43331056 884.975138768 -186.150874335 847.441998354C-181.517855235 828.708486284 -169.803263042 826.416341879 -168.53911222 826.218333865C-167.365244767 826.416341879 -156.710526459 828.708486284 -160.619606422 847.441998354C-168.461640863 885.02330595 -154.485030046 882.968703001 -153.093310046 882.674587827C-151.811760791 882.968703001 -138.620800387 885.02330595 -132.384849141 847.441998354C-129.276372579 828.708486284 -117.748315754 826.416341879 -116.500277814 826.218333865C-115.310292647 826.416341879 -104.454288966 828.708486284 -106.838396262 847.441998354C-111.375728813 883.094687446 -99.1635945929 883.063560541 -96.7200668147 882.712871648C-96.7200668147 882.712871648 -96.7239331332 882.750360257 -96.7239331332 882.750360257C-96.7239331332 882.750360257 -81.5380055559 883.674284053 -78.91016071 852.518183148C-76.9690900158 829.504608006 -65.6896374688 826.075877153 -64.4313972814 825.759723222C-63.243108461 826.0664482 -52.3657240386 829.468255416 -53.4275890776 852.518183148C-54.8628921528 883.674284053 -39.5724724856 882.750360257 -39.5724724856 882.750360257C-37.1454973835 882.629374293 -24.8143385494 880.634753118 -24.7310000545 852.518183148C-24.6627885308 829.504608006 -13.6623730214 826.075877153 -12.4298583506 825.759723222C-11.2166076115 826.0664482 -0.0623802872441 829.468255416 0.751566744984 852.518183148C1.85176633168 883.674284053 17.0829974958 882.750360257 17.0829974958 882.750360257C17.0829974958 882.750360257 17.0810643366 882.712871648 17.0810643366 882.712871648C19.5539761351 883.060720495 31.7104643661 882.99823948 28.9287932066 847.441998354C27.379448235 827.637561701 39.8627756986 826.180163646 39.8627756986 826.180163646C39.8627756986 826.180163646 39.8291387279 825.836518068 39.8291387279 825.836518068C42.0916454747 826.538577463 52.4037064748 830.861127624 54.9309980427 852.518751157C58.5667051242 883.674852063 73.7227460597 882.750928266 73.7227460597 882.750928266C76.1300367679 882.630055904 88.1205391136 880.635321127 83.6275967316 852.518751157C80.1537724049 830.779788704 89.3371777142 826.475755644 91.3599678824 825.798347848C91.3599678824 825.798347848 91.4281310772 826.180163646 91.4281310772 826.180163646C91.4281310772 826.180163646 104.314473913 827.637675303 108.241290612 847.441998354C115.310525316 883.094687446 127.512515282 883.063560541 129.841885174 882.712871648C129.841885174 882.712871648 129.850197759 882.750360257 129.850197759 882.750360257C129.850197759 882.750360257 145.336910416 883.674284053 137.822029345 852.518183148C132.598202951 830.860559615 141.363253269 826.538009454 143.374478312 825.835950059C143.374478312 825.835950059 143.463804767 826.179482035 143.463804767 826.179482035C143.463804767 826.179482035 156.468756589 827.636993692 162.007252979 847.441316743C172.503834028 884.974570759 185.445982339 882.97233826 186.722684197 882.674019818C188.147857518 882.968134992 202.358085796 885.022624339 190.242000593 847.441316743C183.857133258 827.636993692 195.969883761 826.179482035 195.969883761 826.179482035C195.969883761 826.179482035 186.150498059 797.47422731 186.150498059 797.47422731C186.150498059 797.47422731 172.475083117 796.550303513 182.450262122 827.706404419C189.83007819 850.75633215 179.400297458 854.158139366 178.231272569 854.464977947C176.844109992 854.148710413 164.404718405 850.71997956 157.917398463 827.706404419C149.134766061 796.550303513 136.001582955 797.47422731 136.001582955 797.47422731C136.001582955 797.47422731 136.021591153 797.551476563 136.021591153 797.551476563C133.783161904 797.203286912 123.123117742 797.221463207 131.621561237 832.784179638C136.3541912 852.588389087 123.564501493 854.083957362 123.564501493 854.083957362C123.564501493 854.083957362 123.631461296 854.389319119 123.631461296 854.389319119C121.190693103 853.687373325 110.084905916 849.364823164 105.742827281 827.707199632C99.4964176434 796.551098726 86.3020452138 797.475136124 86.3020452138 797.475136124C86.3020452138 797.475136124 86.3157706444 797.552385378 86.3157706444 797.552385378C84.1459492173 797.201469282 73.4150064403 797.126719269 79.033612949 832.785088453C81.9856969284 851.520531754 70.7399490129 853.849255953 69.498184175 854.046809559C68.2017640926 853.849255953 56.2968233748 851.520531754 54.0687558598 832.785088453C49.8395495601 797.222599225 39.172966487 797.204195727 37.0591293515 797.552385378C37.0591293515 797.552385378 37.0515900304 797.475136124 37.0515900304 797.475136124C37.0515900304 797.475136124 23.5877207041 796.551098726 25.9556716218 827.707199632C27.6017083857 849.364823164 17.7063881889 853.687373325 15.4597333477 854.389319119C15.4597333477 854.389319119 15.4422382566 854.083957362 15.4422382566 854.083957362C15.4422382566 854.083957362 2.23899262616 852.588389087 1.49549474954 832.784179638C0.084496318917 795.200031996 -11.7190598625 797.295758813 -12.8849433673 797.589533181C-14.0864115007 797.291555545 -25.9178873345 795.247744771 -26.1128464438 832.784179638C-26.2101568471 851.51962294 -37.850249916 853.848233536 -39.1241873565 854.045900745C-40.4191237393 853.841871833 -51.8977158524 851.49008646 -51.0776793686 832.784179638C-49.4300525812 795.199918394 -61.4041665694 797.295758813 -62.5939584211 797.589533181C-63.7711799048 797.291555545 -75.4363315504 795.247744771 -78.6860205619 832.784179638C-80.4005636564 852.588389087 -93.6771388497 854.083957362 -93.6771388497 854.083957362C-93.6771388497 854.083957362 -93.709615925 854.389319119 -93.709615925 854.389319119C-95.9218508658 853.687373325 -105.605224316 849.364823164 -102.897274185 827.707199632C-99.3817854434 799.591197671 -109.956557951 797.6338379 -112.067171544 797.513306344C-112.067171544 797.513306344 -112.06166204 797.475817735 -112.06166204 797.475817735C-112.06166204 797.475817735 -112.225850087 797.476385745 -112.286290311 797.475817735C-112.346914184 797.476385745 -112.510923414 797.475817735 -112.510923414 797.475817735C-112.510923414 797.475817735 -112.516481247 797.513306344 -112.516481247 797.513306344C-114.662495818 797.634292308 -125.811097649 799.591197671 -130.539146025 827.707199632C-134.409156839 850.720888375 -146.458606043 854.149619228 -147.809802193 854.465886762C-149.013725438 854.159048181 -159.830408661 850.757127363 -155.072033849 827.707199632C-149.267800557 799.591197671 -159.669197679 797.6338379 -161.770000488 797.513306344C-161.770000488 797.513306344 -161.761397929 797.475817735 -161.761397929 797.475817735C-161.761397929 797.475817735 -161.925639138 797.476385745 -161.986031033 797.475817735C-162.046703236 797.476385745 -162.210664137 797.475817735 -162.210664137 797.475817735C-162.210664137 797.475817735 -162.219315024 797.513306344 -162.219315024 797.513306344C-164.375174209 797.634292308 -175.683034531 799.591197671 -182.699179849 827.707199632C-188.442049834 850.720888375 -200.770531242 854.149619228 -202.147467407 854.465886762C-203.326419068 854.159048181 -213.866259389 850.757127363 -207.232067673 827.707199632C-199.139737439 799.591197671 -209.381842239 797.6338379 -211.472834265 797.513306344C-211.472834265 797.513306344 -211.461138652 797.475817735 -211.461138652 797.475817735C-211.461138652 797.475817735 -211.625423357 797.476385745 -211.685771755 797.475817735C-211.74649712 797.476385745 -211.910400026 797.475817735 -211.910400026 797.475817735C-211.910400026 797.475817735 -211.922143969 797.513306344 -211.922143969 797.513306344C-214.087842934 797.634292308 -225.55496658 799.591197671 -234.859213673 827.707199632C-242.053132315 849.446162085 -253.769507847 853.750308747 -256.241515894 854.42760294C-256.241515894 854.42760294 -256.121355549 854.083957362 -256.121355549 854.083957362C-256.121355549 854.083957362 -268.700659536 852.588389087 -261.385309496 832.784179638C-249.527388044 800.68222978 -257.12282386 797.528301787 -260.388572592 797.475136124C-260.388572592 797.475136124 -260.38833578 797.474454513 -260.38833578 797.474454513"
         style="fill:#df4837;fill-opacity:1;stroke:none" />
      <path
         style="fill:#df4837;fill-opacity:1;stroke:none"
         d="M-279.327115056 846.145801315C-280.141134581 846.133305112 -280.720768215 846.298482193 -280.720768215 846.298482193C-280.720768215 846.298482193 -291.694462631 874.354729584 -291.694462631 874.354729584C-291.694462631 874.354729584 -279.190653345 876.820230403 -288.246668293 901.189643552C-299.824697285 932.345858059 -283.167176401 931.421820661 -283.167176401 931.421820661C-283.167176401 931.421820661 -283.15393426 931.384332052 -283.15393426 931.384332052C-280.702113228 931.735020944 -267.633700622 931.76614785 -255.914894142 896.113458758C-249.757342168 877.38006029 -237.007968497 875.087915885 -235.63494698 874.889907871C-234.354349806 875.09439119 -223.077748669 877.409710371 -228.502754113 896.113458758C-239.40317696 933.694766354 -224.312230329 931.640277007 -222.8031289 931.346161833C-221.421243848 931.644366673 -207.470392377 933.646712774 -198.187956153 896.113458758C-193.554937052 877.38006029 -180.992103582 875.087915885 -179.635194947 874.889907871C-178.368574514 875.087915885 -166.866736161 877.38006029 -170.775811291 896.113458758C-178.617845732 933.694766354 -163.694102877 931.640277007 -162.208933959 931.346161833C-160.833945452 931.640277007 -146.696964577 933.694766354 -140.461013331 896.113458758C-137.352536769 877.38006029 -124.976238667 875.087915885 -123.635442914 874.889907871C-122.352704766 875.087915885 -110.648459808 877.38006029 -113.032567104 896.113458758C-117.569899655 931.76614785 -104.504406119 931.735020944 -101.892674155 931.384332052C-101.892674155 931.384332052 -101.896540474 931.421820661 -101.896540474 931.421820661C-101.896540474 931.421820661 -85.6431803588 932.345858059 -83.01533068 901.189643552C-81.0742599858 878.17606841 -68.9581022895 874.747337557 -67.6056447535 874.431183625C-66.3253617178 874.737908604 -54.6079277806 878.139829422 -55.6697879867 901.189643552C-57.1050910618 932.345858059 -40.7483552565 931.421820661 -40.7483552565 931.421820661C-38.1518372562 931.300948299 -24.9585957248 929.306213522 -24.8752572299 901.189643552C-24.8070457061 878.17606841 -12.9699202145 874.747337557 -11.6431881952 874.431183625C-10.3379480737 874.737908604 1.65633843121 878.139829422 2.47028546344 901.189643552C3.57048505014 932.345858059 19.8691487519 931.421820661 19.8691487519 931.421820661C19.8691487519 931.421820661 19.8672155926 931.384332052 19.8672155926 931.384332052C22.5115986158 931.732180898 35.5181742909 931.669813486 32.7365031315 896.113458758C31.1871581598 876.309135707 44.6293857684 874.85162405 44.6293857684 874.85162405C44.6293857684 874.85162405 44.5957487976 874.508092074 44.5957487976 874.508092074C47.0251500146 875.210151469 58.0833428207 879.53270163 60.6106343887 901.190325163C64.2463366373 932.346426068 80.4698149433 931.422502272 80.4698149433 931.422502272C83.0466533826 931.301516308 95.8981171932 929.306781531 91.4051748112 901.190325163C87.9313553174 879.45136271 97.8657978244 875.147216048 100.051688638 874.469921854C100.051688638 874.469921854 100.119856665 874.85162405 100.119856665 874.85162405C100.119856665 874.85162405 113.965094814 876.309135707 117.891911512 896.113458758C124.961151049 931.76614785 138.016495499 931.735020944 140.514064743 931.384332052C140.514064743 931.384332052 140.522377328 931.421820661 140.522377328 931.421820661C140.522377328 931.421820661 157.076522522 932.345858059 149.561646285 901.189643552C144.337815057 879.532133621 153.849002014 875.20958346 156.027116695 874.507410463C156.027116695 874.507410463 156.11644315 874.851056041 156.11644315 874.851056041C156.11644315 874.851056041 170.080290284 876.308567698 175.618791506 896.112890749C186.115372556 933.646144765 200.001453526 931.643798664 201.373682448 931.345480222C202.892299854 931.639708997 218.049665003 933.694084743 205.9335798 896.112890749C199.548712465 876.308567698 212.619246713 874.851056041 212.619246713 874.851056041C212.619246713 874.851056041 202.799856179 846.145801315 202.799856179 846.145801315C202.799856179 846.145801315 188.058129931 845.221877519 198.033304104 876.377978425C205.413125004 899.427792554 194.143285091 902.829713372 192.88227082 903.136551953C191.400886062 902.820284419 178.124789325 899.391553566 171.637469383 876.377978425C162.854836982 845.221877519 148.654221337 846.145801315 148.654221337 846.145801315C148.654221337 846.145801315 148.674229535 846.223050569 148.674229535 846.223050569C146.264536877 845.874974519 134.754192623 845.893150814 143.252636118 881.455867246C147.985266081 901.260076695 134.236676229 902.75564497 134.236676229 902.75564497C134.236676229 902.75564497 134.303636032 903.061006726 134.303636032 903.061006726C131.695973369 902.359060933 119.842937977 898.036510772 115.500859342 876.378887239C109.254449704 845.222786333 94.9937659691 846.14671013 94.9937659691 846.14671013C94.9937659691 846.14671013 95.0074913997 846.223959384 95.0074913997 846.223959384C92.6696591031 845.873043288 81.0840521273 845.798293275 86.7026586361 881.45677606C89.6547426155 900.19210576 77.5617103366 902.520829959 76.2273471711 902.718497167C74.8383384269 902.520829959 62.0849921134 900.19210576 59.8569245984 881.45677606C55.6277182987 845.894173231 44.1108351339 845.875883334 41.8257345884 846.223959384C41.8257345884 846.223959384 41.8181952673 846.14671013 41.8181952673 846.14671013C41.8181952673 846.14671013 27.2868934035 845.222786333 29.6548443211 876.378887239C31.300881085 898.036510772 20.6594290821 902.359060933 18.2458797709 903.061006726C18.2458797709 903.061006726 18.2283846798 902.75564497 18.2283846798 902.75564497C18.2283846798 902.75564497 4.06623890435 901.260076695 3.32274102773 881.455867246C1.91174259711 843.871606002 -10.8390712777 845.96744642 -12.0982780448 846.261220789C-13.3951427539 845.963243152 -26.1706817354 843.919432378 -26.3656408447 881.455867246C-26.462951248 900.191196945 -38.9514450797 902.519921144 -40.3179760149 902.71747475C-41.7077628558 902.513559441 -54.0313872017 900.161774068 -53.2113507179 881.455867246C-51.5637239305 843.871606002 -64.4850956122 845.96744642 -65.7682107262 846.261220789C-67.0408287855 845.963243152 -79.6500435788 843.919432378 -82.8997325904 881.455867246C-84.614270852 901.260076695 -98.8497510231 902.75564497 -98.8497510231 902.75564497C-98.8497510231 902.75564497 -98.8822280984 903.061006726 -98.8822280984 903.061006726C-101.261352676 902.359060933 -111.690862766 898.036510772 -108.982907801 876.378887239C-105.467423893 848.262885278 -116.904254934 846.305525508 -119.184440422 846.184993951C-119.184440422 846.184993951 -119.178882589 846.147505343 -119.178882589 846.147505343C-119.178882589 846.147505343 -119.356148458 846.148186954 -119.421416747 846.147505343C-119.486863853 846.148186954 -119.663950905 846.147505343 -119.663950905 846.147505343C-119.663950905 846.147505343 -119.669508738 846.184993951 -119.669508738 846.184993951C-121.985100038 846.305866313 -133.995755569 848.262885278 -138.723803944 876.378887239C-142.593814759 899.392462381 -155.479969112 902.821193234 -156.925387443 903.137460767C-158.221300071 902.830622187 -169.878042474 899.428701369 -165.119667662 876.378887239C-159.315434371 848.262885278 -170.577768792 846.305525508 -172.848143497 846.184993951C-172.848143497 846.184993951 -172.839540939 846.147505343 -172.839540939 846.147505343C-172.839540939 846.147505343 -173.016855137 846.148186954 -173.082075097 846.147505343C-173.147570532 846.148186954 -173.324609255 846.147505343 -173.324609255 846.147505343C-173.324609255 846.147505343 -173.333260143 846.184993951 -173.333260143 846.184993951C-175.65868639 846.305866313 -187.828605245 848.262885278 -194.844755396 876.378887239C-200.587620548 899.392462381 -213.752811939 902.821193234 -215.223970285 903.137460767C-216.494906496 902.830622187 -227.874805997 899.428701369 -221.240614281 876.378887239C-213.148284047 848.262885278 -224.25133098 846.305525508 -226.511890069 846.184993951C-226.511890069 846.184993951 -226.500194456 846.147505343 -226.500194456 846.147505343C-226.500194456 846.147505343 -226.677556983 846.148186954 -226.742728614 846.147505343C-226.808277211 846.148186954 -226.985262772 846.147505343 -226.985262772 846.147505343C-226.985262772 846.147505343 -226.997006715 846.184993951 -226.997006715 846.184993951C-229.332277575 846.305866313 -241.661454921 848.262885278 -250.965702015 876.378887239C-258.159625489 898.117849692 -270.627033387 902.421882752 -273.262146911 903.099290548C-273.262146911 903.099290548 -273.141986566 902.75564497 -273.141986566 902.75564497C-273.141986566 902.75564497 -286.679069466 901.260076695 -279.363724259 881.455867246C-267.505802807 849.353917387 -275.799355586 846.199989395 -279.326994233 846.14671013C-279.326994233 846.14671013 -279.326757421 846.146142121 -279.326757421 846.146142121"
         id="path7020"
         inkscape:connector-curvature="0" />
      <path
         inkscape:connector-curvature="0"
         id="path7022"
         d="M-222.511676147 700.1311929C-223.151658179 700.142553084 -223.609942575 700.283873778 -223.609942575 700.283873778C-223.609942575 700.283873778 -234.583632158 728.340121169 -234.583632158 728.340121169C-234.583632158 728.340121169 -224.929676558 730.805621988 -233.985686673 755.175148738C-245.563715665 786.331249644 -232.105138362 785.407325847 -232.105138362 785.407325847C-232.105138362 785.407325847 -232.091896221 785.369837239 -232.091896221 785.369837239C-230.144673247 785.720526131 -219.639692621 785.751653036 -207.920890974 750.098963945C-201.763334167 731.365565476 -191.558689161 729.073421072 -190.46393625 728.875413058C-189.468412403 729.079896377 -180.726371513 731.395215558 -186.151376957 750.098963945C-197.051799804 787.68027154 -184.802263786 785.625782193 -183.573489778 785.331667019C-182.478200416 785.62987186 -171.359142091 787.63221796 -162.076705867 750.098963945C-157.443686767 731.365565476 -147.425577128 729.073421072 -146.3469371 728.875413058C-145.358580441 729.073421072 -136.398111888 731.365565476 -140.30719185 750.098963945C-148.149221459 787.68027154 -136.066884384 785.625782193 -134.862052553 785.331667019C-133.767396301 785.625782193 -122.468462341 787.680385142 -116.232515928 750.098963945C-113.124039366 731.365565476 -103.292465095 729.073421072 -102.229937949 728.875413058C-101.225468408 729.073421072 -92.0659424482 731.365565476 -94.4500545771 750.098963945C-98.9873822952 785.751653036 -88.4819715409 785.720526131 -86.374842468 785.369837239C-86.374842468 785.369837239 -86.3787087864 785.407325847 -86.3787087864 785.407325847C-86.3787087864 785.407325847 -73.3276511172 786.331249644 -70.6998014384 755.175148738C-68.7587307441 732.161459995 -59.152688496 728.732729142 -58.0828975041 728.416688812C-57.0785874486 728.723300189 -47.8813165547 732.125221007 -48.9431815937 755.175148738C-50.3784846688 786.331249644 -37.220692445 785.407325847 -37.220692445 785.407325847C-35.1328176381 785.286339884 -24.5258145328 783.291605106 -24.4424808709 755.175148738C-24.3742693471 732.161459995 -15.0472593036 728.732729142 -14.0031938284 728.416688812C-12.9739218542 728.723300189 -3.49980805835 732.125221007 -2.68586102612 755.175148738C-1.58565660653 786.331249644 11.5107046495 785.407325847 11.5107046495 785.407325847C11.5107046495 785.407325847 11.5087714903 785.369837239 11.5087714903 785.369837239C13.6387553384 785.717686085 24.0950541822 785.655318673 21.3133878556 750.098963945C19.764042884 730.294640894 30.3295652248 728.837129236 30.3295652248 728.837129236C30.3295652248 728.837129236 30.2959282541 728.49359726 30.2959282541 728.49359726C32.2246557266 729.195656656 41.0444531144 733.518206817 43.5717446824 755.175830349C47.207446931 786.331931255 60.2286227913 785.408007458 60.2286227913 785.408007458C62.2968132043 785.287021495 72.565397453 783.292286717 68.072455071 755.175830349C64.5986259114 733.436867896 72.2799519925 729.132721234 73.9765312047 728.455427041C73.9765312047 728.455427041 74.0446992324 728.837129236 74.0446992324 728.837129236C74.0446992324 728.837129236 85.0132417788 730.294640894 88.9400536444 750.098963945C96.0092931811 785.751653036 106.504564515 785.720526131 108.497530869 785.369837239C108.497530869 785.369837239 108.505843454 785.407325847 108.505843454 785.407325847C108.505843454 785.407325847 121.857691035 786.331249644 114.342809965 755.175148738C109.11898357 733.517525205 116.391770276 729.194975045 118.069211212 728.492802047C118.069211212 728.492802047 118.158532835 728.836447625 118.158532835 728.836447625C118.158532835 728.836447625 129.245684366 730.293959283 134.784185589 750.098282334C145.280766638 787.631536349 156.335054463 785.629190249 157.420692528 785.330871806C158.658977679 785.625100582 170.974937048 787.679476327 158.858847013 750.098282334C152.473979677 730.293959283 162.671172355 728.836447625 162.671172355 728.836447625C162.671172355 728.836447625 152.85178182 700.1311929 152.85178182 700.1311929C152.85178182 700.1311929 141.898777041 701.049323002 151.284173327 730.363370009C158.663994227 753.413184139 149.914322191 756.815104957 148.9292809 757.121943537C147.730562685 756.805676004 136.964581397 753.376945151 130.477261455 730.363370009C122.21389979 701.049323002 110.696315855 700.1311929 110.696315855 700.1311929C110.696315855 700.1311929 110.716324053 700.208442154 110.716324053 700.208442154C108.9580094 700.396907613 99.9804903829 700.378731318 108.359411474 735.44125883C113.092041438 755.245468279 102.220147188 756.741036555 102.220147188 756.741036555C102.220147188 756.741036555 102.287106991 757.046398311 102.287106991 757.046398311C100.180127738 756.344452518 90.568841795 752.021902357 86.2267631601 730.364278824C80.3494274516 701.049095799 68.9186133691 700.132101715 68.9186133691 700.132101715C68.9186133691 700.132101715 68.9323387997 700.209350969 68.9323387997 700.209350969C67.1932687473 700.399406853 58.185727767 700.474156867 63.6955360737 735.442054043C66.6476200531 754.177497345 57.0964360313 756.506107941 56.0398630157 756.70377515C54.9286347556 756.506107941 44.7205003963 754.177497345 42.4924328813 735.442054043C38.3225310741 700.378276911 29.3515509679 700.396566807 27.5259188777 700.209350969C27.5259188777 700.209350969 27.5183795567 700.132101715 27.5183795567 700.132101715C27.5183795567 700.132101715 16.3292877055 701.049095799 18.5573262231 730.364278824C20.2033629871 752.021902357 11.8003112353 756.344452518 9.88744050147 757.046398311C9.88744050147 757.046398311 9.86994541035 756.741036555 9.86994541035 756.741036555C9.86994541035 756.741036555 -1.41549993022 755.245468279 -2.15899780684 735.44125883C-3.39943843061 702.400162528 -13.472681771 700.304435712 -14.4582788451 700.246612373C-15.4638357883 700.309093388 -25.4353997855 702.352336152 -25.607257642 735.44125883C-25.7045680452 754.17658853 -35.6478547557 756.505312728 -36.7366003739 756.702979937C-37.8418455062 756.498951025 -47.6303731537 754.147165653 -46.8103366699 735.44125883C-45.361883279 702.40027613 -55.2645688126 700.304435712 -56.2454586439 700.246612373C-57.2560611327 700.309093388 -67.3939493181 702.352336152 -70.258596505 735.44125883C-71.9731347666 755.245468279 -83.331914503 756.741036555 -83.331914503 756.741036555C-83.331914503 756.741036555 -83.3643915782 757.046398311 -83.3643915782 757.046398311C-85.2428375789 756.344452518 -93.4339522502 752.021902357 -90.7259972855 730.364278824C-87.2105133771 702.248276863 -96.0611688194 700.290917093 -97.8326386206 700.170385536C-97.8326386206 700.170385536 -97.8270807878 700.132896928 -97.8270807878 700.132896928C-97.8270807878 700.132896928 -97.9651083575 700.133464937 -98.0159069494 700.132896928C-98.0668795257 700.133464937 -98.2047331111 700.132896928 -98.2047331111 700.132896928C-98.2047331111 700.132896928 -98.2102909439 700.170385536 -98.2102909439 700.170385536C-100.01717139 700.291257898 -109.441651322 702.248276863 -114.169699698 730.364278824C-118.039710512 753.377853966 -128.415749417 756.806584819 -129.578501204 757.122852352C-130.598445685 756.816013772 -139.735015378 753.414206556 -134.976640567 730.364278824C-129.172407275 702.248276863 -137.851924963 700.290917093 -139.613588814 700.170385536C-139.613588814 700.170385536 -139.604986255 700.132896928 -139.604986255 700.132896928C-139.604986255 700.132896928 -139.743066987 700.133464937 -139.793812417 700.132896928C-139.844838155 700.133464937 -139.982638578 700.132896928 -139.982638578 700.132896928C-139.982638578 700.132896928 -139.991289466 700.170385536 -139.991289466 700.170385536C-141.808004859 700.291257898 -151.391748116 702.248276863 -158.407898267 730.364278824C-164.150763418 753.377853966 -174.805839361 756.806584819 -175.99432633 757.122852352C-176.989294394 756.816013772 -185.849026019 753.414206556 -179.214834303 730.364278824C-171.122504069 702.248276863 -179.642734268 700.290917093 -181.394582503 700.170385536C-181.394582503 700.170385536 -181.38288689 700.132896928 -181.38288689 700.132896928C-181.38288689 700.132896928 -181.52101595 700.133464937 -181.571713051 700.132896928C-181.622787118 700.133464937 -181.760539213 700.132896928 -181.760539213 700.132896928C-181.760539213 700.132896928 -181.772283155 700.170385536 -181.772283155 700.170385536C-183.598843162 700.291257898 -193.341844909 702.248276863 -202.646092003 730.364278824C-209.840015478 752.103241277 -220.054306949 756.407274337 -222.20010404 757.084682132C-222.20010404 757.084682132 -222.079943694 756.741036555 -222.079943694 756.741036555C-222.079943694 756.741036555 -232.743689856 755.245468279 -225.428339816 735.44125883C-213.570418364 703.339308972 -219.769615421 700.18538098 -222.511560158 700.132101715C-222.511560158 700.132101715 -222.511323346 700.131533706 -222.511323346 700.131533706"
         style="fill:#df4837;fill-opacity:1;stroke:none" />
      <path
         style="fill:#df4837;fill-opacity:1;stroke:none"
         d="M-298.265594692 894.817261719C-299.140054441 894.804765516 -299.757713317 894.969942597 -299.757713317 894.969942597C-299.757713317 894.969942597 -310.7314029 923.02630359 -310.7314029 923.02630359C-310.7314029 923.02630359 -297.277653662 925.491804409 -306.333663778 949.861217557C-303.551113031 981.017318463 -300.187855747 980.093394667 -300.187855747 980.093394667C-300.187855747 980.093394667 -300.174613606 980.055906058 -300.174613606 980.055906058C-297.554593222 980.40659495 -283.631695234 980.437721855 -271.91289842 944.785032764C-265.755341614 926.051520694 -252.157731498 923.759376289 -250.691952168 923.561368275C-249.316330551 923.765851594 -237.194875998 926.081284377 -242.619876609 944.785032764C-253.520299457 982.36634036 -237.482220788 980.311737411 -235.879670441 980.017622237C-234.402258325 980.315940679 -219.507479028 982.318173178 -210.22503797 944.785032764C-205.592023703 926.051520694 -192.180948955 923.759376289 -190.731282507 923.561368275C-189.371904261 923.759376289 -177.02294103 926.051520694 -180.932020993 944.785032764C-188.774055434 982.36634036 -172.903175708 980.311737411 -171.324562706 980.017622237C-169.856130114 980.311737411 -154.773128767 982.36634036 -148.537182354 944.785032764C-145.428700959 926.051520694 -132.20416158 923.759376289 -130.770612847 923.561368275C-129.395116885 923.759376289 -116.842625817 926.051520694 -119.226737946 944.785032764C-123.764065664 980.437721855 -109.845217645 980.40659495 -107.065291162 980.055906058C-107.065291162 980.055906058 -107.06915748 980.093394667 -107.06915748 980.093394667C-107.06915748 980.093394667 -89.7483648275 981.017318463 -87.1205151487 949.861217557C-85.1794444545 926.847642416 -72.2265816088 923.418911563 -70.7799018915 923.102757631C-69.4076294734 923.40948261 -56.8501363554 926.811403427 -57.9119965615 949.861217557C-59.3472996367 981.017318463 -41.9242476933 980.093394667 -41.9242476933 980.093394667C-39.1581819618 979.972522305 -25.1028577331 977.977787527 -25.0195240711 949.861217557C-24.9513125473 926.847642416 -12.2774819064 923.418911563 -10.8565277056 923.102757631C-9.45929336881 923.40948261 3.37504748386 926.811403427 4.18899451609 949.861217557C5.28919410279 981.017318463 22.6552903421 980.093394667 22.6552903421 980.093394667C22.6552903421 980.093394667 22.6533571828 980.055906058 22.6533571828 980.055906058C25.4692065977 980.403754904 39.32587455 980.341387492 36.5442082234 944.785032764C34.9948584189 924.980709713 49.3959861724 923.523198055 49.3959861724 923.523198055C49.3959861724 923.523198055 49.3623492016 923.179552478 49.3623492016 923.179552478C51.9586448887 923.881725475 63.7629695009 928.204275636 66.2902610689 949.861785566C69.9259633175 981.017886472 87.216874161 980.093962676 87.216874161 980.093962676C89.9632603315 979.973090314 103.67569044 977.978355537 99.182748058 949.861785566C95.7089237313 928.122823114 106.394403436 923.818790053 108.743399727 923.14149586C108.743399727 923.14149586 108.811567755 923.523198055 108.811567755 923.523198055C108.811567755 923.523198055 123.615710881 924.980709713 127.542522747 944.785032764C134.611762283 980.437721855 148.520470882 980.40659495 151.18623948 980.055906058C151.18623948 980.055906058 151.194552064 980.093394667 151.194552064 980.093394667C151.194552064 980.093394667 168.816129796 981.017318463 161.301253558 949.861217557C156.077422331 928.203594025 166.334741094 923.881157466 168.679750244 923.178984468C168.679750244 923.178984468 168.769071867 923.522630046 168.769071867 923.522630046C168.769071867 923.522630046 183.691823978 924.980141704 189.230325201 944.784464755C199.726906251 982.317605168 214.556915047 980.31537267 216.024675866 980.017054227C217.636737357 980.311169401 233.741239377 982.365658748 221.625154174 944.784464755C215.240286839 924.980141704 229.2686 923.522630046 229.2686 923.522630046C229.2686 923.522630046 219.449209465 894.817261719 219.449209465 894.817261719C219.449209465 894.817261719 203.641171913 893.893337923 213.616346085 925.049438828C220.996162152 948.09936656 208.886267892 951.501173776 207.533264239 951.808012356C205.957657299 951.491858425 191.844855413 948.06301397 185.357535471 925.049438828C176.574903069 893.893337923 161.306854887 894.817261719 161.306854887 894.817261719C161.306854887 894.817261719 161.326863085 894.894510973 161.326863085 894.894510973C158.745916683 894.546321321 146.385272337 894.564611218 154.883715832 930.127214048C159.616345795 949.931423497 144.908850965 951.427105374 144.908850965 951.427105374C144.908850965 951.427105374 144.975810768 951.73246713 144.975810768 951.73246713C142.201258468 951.030407735 129.600970037 946.707857574 125.258891402 925.050347643C119.012481764 893.894246737 103.685481892 894.818170534 103.685481892 894.818170534C103.685481892 894.818170534 103.699207322 894.895419788 103.699207322 894.895419788C101.193364156 894.544503692 88.7530881485 894.469753679 94.3716946573 930.128236464C97.3237786367 948.863566164 84.3834619945 951.192290362 82.9565053343 951.389957571C81.4748982624 951.192290362 67.8731511862 948.863566164 65.6450836712 930.128236464C61.4158773715 894.565633635 49.0486989478 894.547343738 46.5923398253 894.895419788C46.5923398253 894.895419788 46.5848005042 894.818170534 46.5848005042 894.818170534C46.5848005042 894.818170534 30.9860661028 893.894246737 33.3540170204 925.050347643C35.0000537843 946.707857574 23.6124699753 951.030407735 21.032026194 951.73246713C21.032026194 951.73246713 21.0145311029 951.427105374 21.0145311029 951.427105374C21.0145311029 951.427105374 5.89348518254 949.931423497 5.14998730592 930.127214048C3.7389888753 892.543066406 -9.95907786004 894.638793222 -11.3116127223 894.932567591C-12.703874007 894.634703556 -26.4234761363 892.590892782 -26.6184352457 930.127214048C-26.7157456489 948.862657349 -40.0526402434 951.191267946 -41.5117695062 951.388935154C-42.9964019723 951.184906243 -56.1650585511 948.833234472 -55.3450220672 930.127214048C-53.6973952798 892.542952804 -67.566019822 894.638793222 -68.9424630312 894.932567591C-70.3104776661 894.634703556 -83.8637556073 892.590892782 -87.1134446188 930.127214048C-88.8279828804 949.931423497 -104.022363197 951.427105374 -104.022363197 951.427105374C-104.022363197 951.427105374 -104.054840272 951.73246713 -104.054840272 951.73246713C-106.60085932 951.030407735 -117.776501216 946.707857574 -115.068546251 925.050347643C-111.553062343 896.93423208 -123.851951916 894.976985912 -126.301704467 894.856340753C-126.301704467 894.856340753 -126.296146634 894.818852145 -126.296146634 894.818852145C-126.296146634 894.818852145 -126.486490326 894.819420154 -126.55658668 894.818852145C-126.626857018 894.819420154 -126.817021893 894.818852145 -126.817021893 894.818852145C-126.817021893 894.818852145 -126.822579725 894.856340753 -126.822579725 894.856340753C-129.307738088 894.977326717 -142.180456984 896.93423208 -146.90850536 925.050347643C-150.778516174 948.063922785 -164.501375677 951.492653638 -166.041016189 951.808921171C-167.428923033 951.502082591 -179.925719783 948.100161773 -175.167340139 925.050347643C-169.36311168 896.93423208 -181.486383402 894.976985912 -183.92632517 894.856340753C-183.92632517 894.856340753 -183.917722611 894.818852145 -183.917722611 894.818852145C-183.917722611 894.818852145 -184.108119465 894.819420154 -184.178162657 894.818852145C-184.248481325 894.819420154 -184.43859787 894.818852145 -184.43859787 894.818852145C-184.43859787 894.818852145 -184.447248758 894.856340753 -184.447248758 894.856340753C-186.9422469 894.977326717 -199.974224288 896.93423208 -206.990374439 925.050347643C-212.733239591 948.063922785 -226.735136131 951.492653638 -228.300511826 951.808921171C-229.663442252 951.502082591 -241.883396101 948.100161773 -235.249209218 925.050347643C-227.156878984 896.93423208 -239.120863218 894.976985912 -241.550994202 894.856340753C-241.550994202 894.856340753 -241.539298589 894.818852145 -241.539298589 894.818852145C-241.539298589 894.818852145 -241.729738939 894.819420154 -241.799733802 894.818852145C-241.870105631 894.819420154 -242.060169015 894.818852145 -242.060169015 894.818852145C-242.060169015 894.818852145 -242.071912957 894.856340753 -242.071912957 894.856340753C-244.576755713 894.977326717 -257.767991592 896.93423208 -267.072238685 925.050347643C-274.266157327 946.789310096 -287.484612088 951.093343156 -290.282826258 951.77063735C-290.282826258 951.77063735 -290.162665912 951.427105374 -290.162665912 951.427105374C-290.162665912 951.427105374 -304.65753739 949.931423497 -297.342182518 930.127214048C-285.484265899 898.025264189 -294.475940474 894.871449799 -298.265483535 894.818170534C-298.265483535 894.818170534 -298.265246723 894.817488923 -298.265246723 894.817488923"
         id="path7024"
         inkscape:connector-curvature="0" />
      <path
         inkscape:connector-curvature="0"
         id="path7026"
         d="M-241.450155783 748.802653304C-242.143299695 748.790157101 -242.646887677 748.955447784 -242.646887677 748.955447784C-242.646887677 748.955447784 -253.62057726 777.011695175 -253.62057726 777.011695175C-253.62057726 777.011695175 -243.016667209 779.477195993 -252.072682157 803.846609142C-263.650711149 835.002710048 -249.125822541 834.078786251 -249.125822541 834.078786251C-249.125822541 834.078786251 -249.1125804 834.041297643 -249.1125804 834.041297643C-246.997153241 834.391986535 -235.637696899 834.42311344 -223.918895252 798.770424349C-217.761338445 780.03702588 -206.708452161 777.744767874 -205.520941438 777.546873462C-204.430393148 777.751243179 -194.843498843 780.066675961 -200.268504286 798.770424349C-211.168931967 836.351731944 -197.972254245 834.297242597 -196.650036152 834.003013821C-195.459219726 834.301332263 -183.396223909 836.303678364 -174.113787685 798.770424349C-169.480773417 780.03702588 -158.614422501 777.744767874 -157.44302466 777.546873462C-156.361910188 777.744767874 -146.55432159 780.03702588 -150.46339672 798.770424349C-158.305435994 836.351731944 -145.275957215 834.297242597 -143.977681299 834.003013821C-142.789580962 834.297242597 -130.544631364 836.351731944 -124.308684951 798.770424349C-121.200203556 780.03702588 -110.520392841 777.744767874 -109.365107882 777.546873462C-108.267880527 777.744767874 -98.2601181233 780.03702588 -100.644225419 798.770424349C-105.18155797 834.42311344 -93.8227830669 834.391986535 -91.5474546413 834.041297643C-91.5474546413 834.041297643 -91.5513209598 834.078786251 -91.5513209598 834.078786251C-91.5513209598 834.078786251 -77.432830753 835.002710048 -74.8049810742 803.846609142C-72.86391038 780.833034 -62.4211629824 777.404303147 -61.2571449763 777.088149216C-60.1608455384 777.394874194 -50.1235202967 780.796795012 -51.1853853356 803.846609142C-52.6206884108 835.002710048 -38.3965800488 834.078786251 -38.3965800488 834.078786251C-36.1391575108 833.957913889 -24.6700765411 831.963179112 -24.5867428791 803.846609142C-24.5185313554 780.833034 -14.3548161625 777.404303147 -13.2165285059 777.088149216C-12.0952671493 777.394874194 -1.7810941728 780.796795012 -0.96714714057 803.846609142C0.133052446129 835.002710048 14.2968510727 834.078786251 14.2968510727 834.078786251C14.2968510727 834.078786251 14.2949179134 834.041297643 14.2949179134 834.041297643C16.5963681532 834.389146489 27.902764107 834.326779077 25.1210929476 798.770424349C23.5717479759 778.966101298 35.0961704617 777.50858964 35.0961704617 777.50858964C35.0961704617 777.50858964 35.062533491 777.164944062 35.062533491 777.164944062C37.1581457678 777.86711706 46.7240797946 782.18966722 49.2513665297 803.847177151C52.8870736111 835.003391659 66.975682009 834.07935426 66.975682009 834.07935426C69.2134201532 833.958481899 80.3429658668 831.963747121 75.8500234848 803.847177151C72.3761991581 782.1083283 80.8085624369 777.804181638 82.6682471271 777.126887445C82.6682471271 777.126887445 82.7364151548 777.50858964 82.7364151548 777.50858964C82.7364151548 777.50858964 94.6638578461 778.966101298 98.5906697117 798.770424349C105.659909248 834.42311344 117.008535066 834.391986535 119.169705605 834.041297643C119.169705605 834.041297643 119.17801819 834.078786251 119.17801819 834.078786251C119.17801819 834.078786251 133.597298309 835.002710048 126.082417238 803.846609142C120.858590844 782.188985609 128.877509356 777.86654905 130.721839929 777.164376053C130.721839929 777.164376053 130.811166385 777.508021631 130.811166385 777.508021631C130.811166385 777.508021631 142.857213228 778.965533288 148.395714451 798.769856339C158.8922955 836.302996753 170.890515984 834.300764254 172.071685946 834.002445812C173.403415182 834.296560986 186.666506589 836.351050333 174.550421387 798.769856339C168.165554051 778.965533288 179.320525642 777.508021631 179.320525642 777.508021631C179.320525642 777.508021631 169.501135107 748.802653304 169.501135107 748.802653304C169.501135107 748.802653304 156.892041136 747.878729507 166.867215308 779.034830413C174.247031375 802.084758145 164.657304991 805.486678963 163.580274318 805.793517543C162.287333922 805.477250009 150.684647485 802.048405555 144.197327542 779.034830413C135.414695141 747.878729507 123.348944572 748.802653304 123.348944572 748.802653304C123.348944572 748.802653304 123.36895277 748.879902558 123.36895277 748.879902558C121.301782098 748.531712906 111.492033195 748.550002803 119.990481523 784.112605632C124.723106653 803.916815082 112.892317091 805.412496958 112.892317091 805.412496958C112.892317091 805.412496958 112.959276894 805.717858715 112.959276894 805.717858715C110.685403171 805.01579932 100.32686419 800.693362761 95.9847903877 779.035739228C89.7383759171 747.879638322 77.6103244586 748.803562119 77.6103244586 748.803562119C77.6103244586 748.803562119 77.6240498892 748.880811372 77.6240498892 748.880811372C75.6222393316 748.529895277 65.7459655862 748.455145263 71.3645720949 784.113628049C74.3166560743 802.848957749 63.9181925221 805.177681947 62.7690211789 805.375349156C61.5651994241 805.177681947 50.5086594691 802.848957749 48.2805919541 784.113628049C44.0513856543 748.55102522 34.235102673 748.532735323 32.2925192817 748.880811372C32.2925192817 748.880811372 32.2849799606 748.803562119 32.2849799606 748.803562119C32.2849799606 748.803562119 19.8885431719 747.879638322 22.2564940896 779.035739228C23.9025308535 800.693362761 14.7533472956 805.01579932 12.6735820917 805.717858715C12.6735820917 805.717858715 12.6560870006 805.412496958 12.6560870006 805.412496958C12.6560870006 805.412496958 0.411741515073 803.916815082 -0.331756361549 784.112605632C-1.74275479217 746.528457991 -12.5990532801 748.624184807 -13.6716183555 748.917959175C-14.7776850805 748.620095141 -25.6650977664 746.576284367 -25.8600568758 784.112605632C-25.957367279 802.848048934 -36.7490547523 805.176659531 -37.9303986981 805.374326739C-39.1304894556 805.170411429 -49.764049336 802.818626056 -48.9440128521 784.112605632C-47.2963908976 746.528344389 -58.3232423596 748.624184807 -59.4197109489 748.917959175C-60.501535857 748.620095141 -71.2226243549 746.576284367 -74.4723133664 784.112605632C-76.1868564609 803.916815082 -88.5045315093 805.412496958 -88.5045315093 805.412496958C-88.5045315093 805.412496958 -88.5370085845 805.717858715 -88.5370085845 805.717858715C-90.5823490552 805.01579932 -99.5195955327 800.693362761 -96.8116405679 779.035739228C-93.2961566596 750.919623665 -103.008870635 748.962377496 -104.949912331 748.841732338C-104.949912331 748.841732338 -104.944354499 748.80424373 -104.944354499 748.80424373C-104.944354499 748.80424373 -105.095464724 748.804811739 -105.151086548 748.80424373C-105.206882356 748.804811739 -105.357813764 748.80424373 -105.357813764 748.80424373C-105.357813764 748.80424373 -105.363371597 748.841732338 -105.363371597 748.841732338C-107.339819105 748.962718302 -117.626362403 750.919623665 -122.354410779 779.035739228C-126.224421593 802.049314369 -137.437165648 805.478045222 -138.694139616 805.794312756C-139.806073479 805.487474175 -149.782702354 802.085553358 -145.024322709 779.035739228C-139.22009425 750.919623665 -148.760549238 748.962377496 -150.691780152 748.841732338C-150.691780152 748.841732338 -150.683177594 748.80424373 -150.683177594 748.80424373C-150.683177594 748.80424373 -150.834336147 748.804811739 -150.88990481 748.80424373C-150.94575378 748.804811739 -151.096636859 748.80424373 -151.096636859 748.80424373C-151.096636859 748.80424373 -151.105287746 748.841732338 -151.105287746 748.841732338C-153.091575035 748.962718302 -163.537376825 750.919623665 -170.553526976 779.035739228C-176.296392127 802.049314369 -187.788173219 805.478045222 -189.07088237 805.794312756C-190.157839816 805.487474175 -199.857625789 802.085553358 -193.223438906 779.035739228C-185.131108672 750.919623665 -194.512276171 748.962377496 -196.433696302 748.841732338C-196.433696302 748.841732338 -196.422000688 748.80424373 -196.422000688 748.80424373C-196.422000688 748.80424373 -196.573207571 748.804811739 -196.628727905 748.80424373C-196.684630037 748.804811739 -196.835455121 748.80424373 -196.835455121 748.80424373C-196.835455121 748.80424373 -196.847199063 748.841732338 -196.847199063 748.841732338C-198.843330966 748.962718302 -209.448391246 750.919623665 -218.752638339 779.035739228C-225.946561814 800.774701681 -236.911895316 805.078734741 -239.220797885 805.756028934C-239.220797885 805.756028934 -239.100632706 805.412496958 -239.100632706 805.412496958C-239.100632706 805.412496958 -250.722157781 803.916815082 -243.406812574 784.112605632C-231.548891122 752.010769376 -238.446205142 748.856841383 -241.450054293 748.803562119C-241.450054293 748.803562119 -241.449817481 748.802880508 -241.449817481 748.802880508"
         style="fill:#df4837;fill-opacity:1;stroke:none" />
    </g>
  </g>
</svg>
