<?xml version="1.0" encoding="UTF-8" standalone="no"?>
<!-- Created with Inkscape (http://www.inkscape.org/) -->

<svg
   xmlns:dc="http://purl.org/dc/elements/1.1/"
   xmlns:cc="http://creativecommons.org/ns#"
   xmlns:rdf="http://www.w3.org/1999/02/22-rdf-syntax-ns#"
   xmlns:svg="http://www.w3.org/2000/svg"
   xmlns="http://www.w3.org/2000/svg"
   xmlns:sodipodi="http://sodipodi.sourceforge.net/DTD/sodipodi-0.dtd"
   xmlns:inkscape="http://www.inkscape.org/namespaces/inkscape"
   width="680"
   height="460"
   id="svg2"
   version="1.1"
   inkscape:version="0.48.4 r9939"
   sodipodi:docname="cristo-redentor.svg">
  <defs
     id="defs4" />
  <sodipodi:namedview
     id="base"
     pagecolor="#ffffff"
     bordercolor="#666666"
     borderopacity="1.0"
     inkscape:pageopacity="0.0"
     inkscape:pageshadow="2"
     inkscape:zoom="1.979899"
     inkscape:cx="293.84766"
     inkscape:cy="175.26086"
     inkscape:document-units="px"
     inkscape:current-layer="layer1"
     showgrid="false"
     fit-margin-top="5"
     fit-margin-left="5"
     fit-margin-right="5"
     fit-margin-bottom="5"
     inkscape:window-width="1024"
     inkscape:window-height="713"
     inkscape:window-x="0"
     inkscape:window-y="30"
     inkscape:window-maximized="1" />
  <metadata
     id="metadata7">
    <rdf:RDF>
      <cc:Work
         rdf:about="">
        <dc:format>image/svg+xml</dc:format>
        <dc:type
           rdf:resource="http://purl.org/dc/dcmitype/StillImage" />
        <dc:title />
      </cc:Work>
    </rdf:RDF>
  </metadata>
  <g
     inkscape:label="Layer 1"
     inkscape:groupmode="layer"
     id="layer1"
     transform="translate(-325.39256,-971.61861)">
    <path
       style="fill:#3487f8;fill-opacity:1;stroke:none"
       d="m 597.62438,1045.7908 c 18.3694,-2.643 37.05367,-3.7451 55.53572,-6.0715 0,0 -2.16562,-52.02098 21.78571,-50.35711 18.58333,1.29095 11.60714,52.14281 11.60714,52.14281 0,0 27.67858,1.6072 58.21429,10 20.55485,1.4903 53.92857,-0.8928 53.92857,-0.8928 l 1.25,1.875 c 6.34216,-3.746 21.82432,-6.2418 26.51785,-5.8928 4.69353,0.349 17.12527,-0.5447 17.23215,2.5893 0.10688,3.134 -8.91098,4.4286 -18.3127,7.6183 -9.40172,3.1897 -24.30311,-0.3545 -24.18729,3.9888 0.35713,13.3928 -11.78573,29.1071 -11.78573,29.1071 l -41.78572,1.7857 c -8.755,4.8904 -18.27574,8.5521 -27.49999,8.75 l 8.03571,119.4643 c -1.0119,1.2398 -2.0238,1.2405 -3.03571,1.0714 l 1.42857,42.8572 c -0.0177,2.9647 -3.10682,1.3227 -3.57143,2.4999 l 6.07143,86.2501 -99.46428,1.0714 3.75001,-142.6787 c -1.40578,-0.3291 -2.33846,-0.8077 -2.23216,-2.1427 l -1.5625,-34.1965 c -0.40179,-2.5892 -2.05357,0.8929 -2.63393,-1.6964 l 1e-5,-12.1429 c -2.14286,0.8903 -4.28572,0.8359 -6.42858,-0.1786 l 1.25001,-59.107 c -12.83198,-3.7346 -22.43677,-4.2327 -33.39286,-11.2501 l -34.46429,3.0358 c -10.0275,-9.44 -18.06088,-19.5097 -19.10714,-31.7858 -15.95239,-4.1071 -31.90476,1.4286 -34.64286,-3.75 0,0 -13.10791,-2.4499 -13.03571,-5.4464 0.0722,-2.9965 6.83599,-4.1482 15.8025,-4.1125 8.96652,0.036 21.38577,2.9153 30.26893,3.8446 l -0.17857,-2.8571 c 20.61431,5.0911 46.27345,-0.7498 64.64285,-3.3928 z"
       id="path3335"
       inkscape:connector-curvature="0"
       sodipodi:nodetypes="zcscccczzsscccccccccccccccccccczsccz" />
    <path
       style="fill:#2973cc;fill-opacity:1;stroke:none;stroke-width:1px;stroke-linecap:butt;stroke-linejoin:miter;stroke-opacity:1"
       d="m 599.1477,1352.3775 155.05841,-2.0203 0,75.7614 -153.54318,-1.0102 z"
       id="path3339"
       inkscape:connector-curvature="0" />
  </g>
</svg>
