<?xml version="1.0" encoding="utf-8"?>
<!-- Generator: Adobe Illustrator 15.0.2, SVG Export Plug-In  -->
<!DOCTYPE svg PUBLIC "-//W3C//DTD SVG 1.1//EN" "http://www.w3.org/Graphics/SVG/1.1/DTD/svg11.dtd" [
	<!ENTITY ns_flows "http://ns.adobe.com/Flows/1.0/">
]>
<svg version="1.1"
	 xmlns="http://www.w3.org/2000/svg" xmlns:xlink="http://www.w3.org/1999/xlink" xmlns:a="http://ns.adobe.com/AdobeSVGViewerExtensions/3.0/"
	 x="0px" y="0px" width="185px" height="188px" viewBox="0 0 185 188" enable-background="new 0 0 185 188" xml:space="preserve">
<defs>
</defs>
<rect y="128" fill="none" width="185" height="60"/>
<path fill="#3399FF" d="M10.327,181.061c0,1.191-1.29,2.156-2.882,2.156l0,0c-1.592,0-2.882-0.965-2.882-2.156v-46.18
	c0-1.191,1.29-2.156,2.882-2.156l0,0c1.592,0,2.882,0.965,2.882,2.156V181.061z"/>
<rect x="6.815" y="132.725" fill="#3399FF" width="13.541" height="5.879"/>
<rect x="6.931" y="177.454" fill="#3399FF" width="13.54" height="5.879"/>
<path fill="#00CC99" d="M58.284,134.94c0-1.191,1.291-2.158,2.883-2.158l0,0c1.591,0,2.881,0.967,2.881,2.158v46.178
	c0,1.191-1.29,2.158-2.881,2.158l0,0c-1.592,0-2.883-0.967-2.883-2.158V134.94z"/>
<rect x="48.254" y="177.395" fill="#00CC99" width="13.541" height="5.881"/>
<rect x="48.139" y="132.667" fill="#00CC99" width="13.541" height="5.879"/>
<rect x="44.219" y="143.157" fill="#00CC99" width="8.818" height="30.436"/>
<rect x="15.947" y="142.733" fill="#3399FF" width="8.819" height="30.686"/>
<polygon fill="#33FFCC" points="30.472,147.827 39.292,147.827 52.952,173.418 43.959,173.418 "/>
<polygon fill="#66CCFF" points="39.292,147.827 29.608,147.827 15.947,173.418 24.938,173.418 "/>
<g>
	<path fill="#E6E7E8" d="M86.932,143.35c0.082-0.27,0.152-0.54,0.211-0.813s0.088-0.506,0.088-0.699
		c0-0.305-0.075-0.528-0.224-0.672s-0.374-0.227-0.672-0.25v-0.58h3.665v0.58c-0.217,0.047-0.398,0.13-0.545,0.25
		s-0.278,0.289-0.396,0.506s-0.264,0.58-0.439,1.09l-3.296,9.633h-2.092l-1.986-8.254l-2.355,8.254h-2.197l-2.646-9.844
		c-0.129-0.48-0.243-0.814-0.343-1.002s-0.211-0.328-0.334-0.422s-0.278-0.164-0.466-0.211v-0.58h4.729v0.58
		c-0.305,0.035-0.53,0.119-0.677,0.254s-0.22,0.326-0.22,0.572c0,0.311,0.085,0.793,0.255,1.449l1.521,6.109l2.522-8.965h1.986
		l2.057,8.965L86.932,143.35z"/>
	<path fill="#E6E7E8" d="M93.304,152.333v-0.58c0.246-0.041,0.441-0.095,0.584-0.162s0.251-0.162,0.321-0.285
		s0.113-0.28,0.131-0.471s0.027-0.426,0.027-0.707v-8.764h-0.713c-0.351,0-0.621,0.041-0.808,0.123s-0.35,0.211-0.488,0.387
		s-0.256,0.412-0.356,0.708s-0.182,0.575-0.246,0.839h-1.204v-3.084h10.344v3.084h-1.203c-0.111-0.398-0.199-0.691-0.264-0.879
		s-0.137-0.347-0.216-0.479s-0.163-0.242-0.251-0.33s-0.182-0.158-0.281-0.211s-0.224-0.092-0.373-0.118s-0.344-0.04-0.584-0.04
		h-0.633v8.764c0,0.311,0.008,0.546,0.025,0.707s0.051,0.291,0.098,0.391s0.104,0.181,0.171,0.242s0.161,0.117,0.281,0.167
		s0.282,0.089,0.487,0.118v0.58H93.304z"/>
	<path fill="#E6E7E8" d="M115.856,140.917c-0.311,0.088-0.521,0.183-0.633,0.285s-0.188,0.24-0.232,0.413s-0.066,0.479-0.066,0.919
		v7.602c0,0.357,0.018,0.641,0.053,0.849s0.107,0.366,0.216,0.475s0.329,0.206,0.663,0.294v0.58h-4.508v-0.58
		c0.258-0.07,0.436-0.131,0.535-0.184s0.178-0.122,0.233-0.207s0.097-0.214,0.123-0.387s0.04-0.459,0.04-0.857v-4.307
		c0-0.475,0.008-1.033,0.025-1.678s0.035-1.102,0.053-1.371h-0.184c-0.07,0.234-0.146,0.464-0.225,0.689s-0.227,0.629-0.443,1.209
		l-2.355,6.346h-1.547l-2.479-7.129c-0.146-0.404-0.275-0.805-0.387-1.203h-0.158c0.059,0.967,0.088,2.109,0.088,3.428v4.043
		c0,0.434,0.02,0.734,0.061,0.904s0.123,0.311,0.246,0.422s0.338,0.205,0.643,0.281v0.58h-3.322v-0.58
		c0.217-0.059,0.388-0.123,0.514-0.193s0.221-0.164,0.285-0.281s0.104-0.266,0.119-0.447s0.021-0.414,0.021-0.695v-7.602
		c0-0.445-0.019-0.75-0.057-0.914s-0.113-0.299-0.225-0.404s-0.33-0.205-0.658-0.299v-0.58h4.367l2.436,7.215l2.637-7.215h4.121
		V140.917z"/>
	<path fill="#E6E7E8" d="M126.131,152.333h-4.615v-0.58c0.217-0.059,0.389-0.121,0.515-0.188s0.22-0.161,0.281-0.281
		s0.101-0.272,0.118-0.457s0.027-0.417,0.027-0.698v-7.576c0-0.275-0.008-0.508-0.022-0.695s-0.053-0.34-0.114-0.457
		s-0.155-0.212-0.281-0.285s-0.301-0.139-0.523-0.197v-0.58h5.125c0.691,0,1.278,0.048,1.762,0.145s0.906,0.244,1.27,0.443
		c0.305,0.164,0.563,0.371,0.773,0.62s0.374,0.539,0.488,0.87s0.172,0.717,0.172,1.156c0,0.574-0.102,1.066-0.304,1.477
		s-0.475,0.751-0.817,1.023s-0.801,0.529-1.375,0.77v0.088c0.434,0.188,0.792,0.438,1.076,0.751s0.541,0.71,0.77,1.19l0.553,1.195
		c0.246,0.533,0.491,0.934,0.734,1.2s0.531,0.429,0.865,0.487v0.58h-3.383c-0.34-0.469-0.725-1.166-1.152-2.092l-0.686-1.502
		c-0.205-0.445-0.381-0.762-0.527-0.949s-0.297-0.316-0.452-0.387s-0.394-0.105-0.716-0.105h-0.51v2.83
		c0,0.439,0.02,0.746,0.061,0.922s0.121,0.316,0.238,0.422s0.334,0.199,0.65,0.281V152.333z M125.182,141.381v4.887h0.869
		c0.469,0,0.855-0.063,1.16-0.188s0.547-0.302,0.726-0.527s0.302-0.491,0.369-0.796s0.101-0.639,0.101-1.002
		c0-0.797-0.188-1.395-0.563-1.793s-0.932-0.598-1.67-0.598C125.67,141.364,125.34,141.37,125.182,141.381z"/>
	<path fill="#E6E7E8" d="M133.329,151.752c0.287-0.076,0.485-0.176,0.594-0.299s0.182-0.289,0.22-0.5s0.058-0.596,0.058-1.152
		v-4.086c0-0.287-0.014-0.52-0.04-0.695s-0.076-0.316-0.149-0.422s-0.173-0.186-0.299-0.241s-0.289-0.104-0.488-0.146v-0.598
		l2.418-0.07h1.098v6.25c0,0.328,0.005,0.581,0.014,0.76s0.021,0.316,0.039,0.413s0.043,0.183,0.075,0.259s0.075,0.146,0.128,0.211
		s0.129,0.123,0.229,0.176s0.23,0.1,0.395,0.141v0.58h-4.289V151.752z M136.668,140.108v2.152h-2.408v-2.152H136.668z"/>
	<path fill="#E6E7E8" d="M143.26,152.473c-0.861,0-1.604-0.15-2.228-0.452s-1.112-0.785-1.464-1.45s-0.527-1.51-0.527-2.535
		c0-0.785,0.109-1.465,0.326-2.039s0.518-1.049,0.904-1.424s0.849-0.652,1.385-0.831s1.117-0.269,1.744-0.269
		c1.418,0,2.488,0.374,3.209,1.121s1.08,1.842,1.08,3.283c0,1.02-0.178,1.873-0.535,2.562s-0.867,1.2-1.529,1.534
		S144.174,152.473,143.26,152.473z M141.713,147.842c0,1.242,0.14,2.172,0.418,2.79s0.699,0.927,1.262,0.927
		c0.311,0,0.569-0.078,0.777-0.236s0.375-0.387,0.501-0.686s0.216-0.658,0.269-1.077s0.078-0.89,0.078-1.411
		c0-1.26-0.139-2.201-0.417-2.825s-0.69-0.937-1.235-0.937c-0.398,0-0.717,0.127-0.957,0.379s-0.416,0.629-0.527,1.133
		S141.713,147.051,141.713,147.842z"/>
	<path fill="#E6E7E8" d="M79.294,171.78c0.381,0,0.665-0.027,0.853-0.084c0.188-0.055,0.335-0.152,0.444-0.289
		c0.108-0.139,0.198-0.345,0.268-0.62h1.011l-0.202,3.146h-8.051v-0.58c0.246-0.563,0.602-1.175,1.068-1.837
		s1.033-1.386,1.701-2.171c0.633-0.744,1.115-1.356,1.446-1.837s0.579-0.935,0.743-1.362s0.246-0.87,0.246-1.327
		c0-0.645-0.144-1.15-0.431-1.516c-0.287-0.367-0.68-0.55-1.178-0.55c-0.469,0-0.857,0.165-1.165,0.497
		c-0.308,0.33-0.532,0.854-0.672,1.568h-1.582v-2.074c0.715-0.287,1.274-0.488,1.679-0.602c0.404-0.115,0.804-0.201,1.2-0.26
		s0.825-0.088,1.288-0.088c0.861,0,1.564,0.115,2.109,0.348c0.545,0.23,0.939,0.545,1.182,0.939
		c0.243,0.396,0.365,0.857,0.365,1.385c0,0.463-0.086,0.894-0.259,1.292s-0.472,0.853-0.896,1.362s-1.141,1.239-2.149,2.188
		c-0.451,0.439-0.873,0.884-1.266,1.331c-0.393,0.449-0.683,0.799-0.87,1.051v0.088H79.294z"/>
	<path fill="#E6E7E8" d="M88.549,174.074c-0.914,0-1.68-0.2-2.298-0.603c-0.618-0.4-1.094-1.05-1.428-1.946s-0.501-2.057-0.501-3.48
		c0-1.342,0.17-2.478,0.51-3.405c0.34-0.93,0.839-1.635,1.499-2.119c0.659-0.482,1.452-0.725,2.377-0.725
		c1.441,0,2.517,0.49,3.226,1.473c0.709,0.98,1.063,2.482,1.063,4.504c0,2.074-0.376,3.643-1.129,4.707
		C91.114,173.542,90.008,174.074,88.549,174.074z M86.993,167.79c0,1.289,0.057,2.314,0.171,3.076s0.294,1.322,0.541,1.684
		c0.246,0.359,0.574,0.54,0.984,0.54c0.223,0,0.417-0.054,0.584-0.163c0.167-0.107,0.316-0.277,0.448-0.51
		c0.132-0.23,0.245-0.539,0.338-0.922c0.094-0.385,0.161-0.861,0.202-1.434c0.041-0.57,0.062-1.208,0.062-1.911
		c0-1.049-0.04-1.931-0.119-2.646s-0.192-1.266-0.338-1.652s-0.319-0.662-0.519-0.826s-0.431-0.246-0.694-0.246
		c-0.311,0-0.573,0.103-0.787,0.308s-0.385,0.516-0.514,0.932s-0.221,0.938-0.277,1.564S86.993,166.946,86.993,167.79z"/>
	<path fill="#E6E7E8" d="M101.038,171.481c0,0.34,0.02,0.596,0.058,0.77c0.038,0.172,0.105,0.313,0.202,0.422
		c0.097,0.107,0.236,0.193,0.418,0.254c0.182,0.063,0.41,0.109,0.686,0.141c0.275,0.033,0.639,0.055,1.09,0.066v0.8h-7.586v-0.8
		c0.65-0.029,1.115-0.068,1.394-0.119c0.278-0.049,0.491-0.124,0.638-0.224s0.253-0.24,0.32-0.422s0.102-0.478,0.102-0.888v-6.354
		c0-0.24-0.046-0.413-0.137-0.519s-0.215-0.158-0.373-0.158c-0.146,0-0.354,0.067-0.62,0.202s-0.704,0.41-1.313,0.826l-0.537-0.932
		l4.588-2.751h1.125c-0.035,0.563-0.053,1.342-0.053,2.338V171.481z"/>
	<path fill="#E6E7E8" d="M106.03,173.388v-2.197h1.592c0.146,0.639,0.381,1.114,0.703,1.429c0.322,0.313,0.738,0.47,1.248,0.47
		c0.639,0,1.109-0.198,1.414-0.593c0.305-0.396,0.457-1.007,0.457-1.833c0-0.814-0.195-1.436-0.588-1.863s-0.961-0.642-1.705-0.642
		c-0.287,0-0.597,0.026-0.928,0.079s-0.625,0.117-0.883,0.193l-0.791-0.492v-6.003h5.193c0.217,0,0.375-0.015,0.475-0.044
		s0.182-0.079,0.246-0.149s0.135-0.199,0.211-0.387h0.967l-0.176,2.804h-5.396v3.164c0.352-0.105,0.711-0.183,1.077-0.233
		c0.366-0.049,0.815-0.074,1.349-0.074c0.727,0,1.364,0.135,1.912,0.404s0.973,0.66,1.274,1.174
		c0.302,0.512,0.452,1.114,0.452,1.806c0,0.809-0.182,1.487-0.545,2.034c-0.363,0.549-0.887,0.959-1.572,1.23
		c-0.686,0.273-1.506,0.409-2.461,0.409c-0.615,0-1.242-0.062-1.881-0.185S106.487,173.599,106.03,173.388z"/>
</g>
<rect fill="none" width="185" height="60"/>
<path fill="#3399FF" d="M10.327,53.061c0,1.191-1.29,2.157-2.882,2.157l0,0c-1.592,0-2.882-0.966-2.882-2.157V6.882
	c0-1.191,1.29-2.157,2.882-2.157l0,0c1.592,0,2.882,0.966,2.882,2.157V53.061z"/>
<rect x="6.815" y="4.725" fill="#3399FF" width="13.541" height="5.879"/>
<rect x="6.931" y="49.454" fill="#3399FF" width="13.54" height="5.879"/>
<path fill="#00CC99" d="M58.284,6.94c0-1.192,1.291-2.158,2.883-2.158l0,0c1.591,0,2.881,0.966,2.881,2.158v46.178
	c0,1.191-1.29,2.157-2.881,2.157l0,0c-1.592,0-2.883-0.966-2.883-2.157V6.94z"/>
<rect x="48.254" y="49.396" fill="#00CC99" width="13.541" height="5.879"/>
<rect x="48.139" y="4.667" fill="#00CC99" width="13.541" height="5.879"/>
<rect x="44.219" y="15.158" fill="#00CC99" width="8.818" height="30.434"/>
<rect x="15.947" y="14.734" fill="#3399FF" width="8.819" height="30.685"/>
<polygon fill="#33FFCC" points="30.472,19.826 39.292,19.826 52.952,45.419 43.959,45.419 "/>
<polygon fill="#66CCFF" points="39.292,19.826 29.608,19.826 15.947,45.419 24.938,45.419 "/>
<g>
	<path fill="#6D6E71" d="M86.932,15.351c0.082-0.27,0.152-0.541,0.211-0.813s0.088-0.505,0.088-0.699
		c0-0.305-0.075-0.529-0.224-0.672s-0.374-0.227-0.672-0.25v-0.58h3.665v0.58c-0.217,0.047-0.398,0.13-0.545,0.25
		s-0.278,0.289-0.396,0.505s-0.264,0.58-0.439,1.09l-3.296,9.633h-2.092l-1.986-8.253l-2.355,8.253h-2.197l-2.646-9.844
		c-0.129-0.48-0.243-0.814-0.343-1.002s-0.211-0.328-0.334-0.422s-0.278-0.164-0.466-0.211v-0.58h4.729v0.58
		c-0.305,0.035-0.53,0.12-0.677,0.255s-0.22,0.325-0.22,0.571c0,0.311,0.085,0.794,0.255,1.45l1.521,6.108l2.522-8.965h1.986
		l2.057,8.965L86.932,15.351z"/>
	<path fill="#6D6E71" d="M93.304,24.333v-0.58c0.246-0.041,0.441-0.095,0.584-0.163s0.251-0.163,0.321-0.286s0.113-0.28,0.131-0.47
		s0.027-0.426,0.027-0.708v-8.763h-0.713c-0.351,0-0.621,0.041-0.808,0.123s-0.35,0.211-0.488,0.387s-0.256,0.412-0.356,0.708
		s-0.182,0.576-0.246,0.839h-1.204v-3.085h10.344v3.085h-1.203c-0.111-0.398-0.199-0.691-0.264-0.879s-0.137-0.347-0.216-0.479
		s-0.163-0.242-0.251-0.33s-0.182-0.158-0.281-0.211s-0.224-0.092-0.373-0.119s-0.344-0.04-0.584-0.04h-0.633v8.763
		c0,0.311,0.008,0.546,0.025,0.708s0.051,0.292,0.098,0.391s0.104,0.18,0.171,0.242s0.161,0.117,0.281,0.167
		s0.282,0.089,0.487,0.119v0.58H93.304z"/>
	<path fill="#6D6E71" d="M115.856,12.916c-0.311,0.088-0.521,0.183-0.633,0.286s-0.188,0.24-0.232,0.413s-0.066,0.479-0.066,0.918
		v7.603c0,0.357,0.018,0.64,0.053,0.848s0.107,0.366,0.216,0.475s0.329,0.207,0.663,0.294v0.58h-4.508v-0.58
		c0.258-0.07,0.436-0.132,0.535-0.185s0.178-0.122,0.233-0.207s0.097-0.214,0.123-0.387s0.04-0.458,0.04-0.857v-4.307
		c0-0.475,0.008-1.034,0.025-1.679s0.035-1.102,0.053-1.371h-0.184c-0.07,0.234-0.146,0.464-0.225,0.69s-0.227,0.628-0.443,1.208
		l-2.355,6.346h-1.547l-2.479-7.128c-0.146-0.404-0.275-0.806-0.387-1.204h-0.158c0.059,0.967,0.088,2.109,0.088,3.428v4.043
		c0,0.434,0.02,0.735,0.061,0.905s0.123,0.311,0.246,0.422s0.338,0.205,0.643,0.281v0.58h-3.322v-0.58
		c0.217-0.059,0.388-0.123,0.514-0.193s0.221-0.164,0.285-0.281s0.104-0.267,0.119-0.448s0.021-0.413,0.021-0.694v-7.603
		c0-0.445-0.019-0.75-0.057-0.914s-0.113-0.299-0.225-0.404s-0.33-0.205-0.658-0.299v-0.58h4.367l2.436,7.216l2.637-7.216h4.121
		V12.916z"/>
	<path fill="#6D6E71" d="M126.131,24.333h-4.615v-0.58c0.217-0.059,0.389-0.122,0.515-0.189s0.22-0.161,0.281-0.281
		s0.101-0.272,0.118-0.457s0.027-0.417,0.027-0.699v-7.576c0-0.275-0.008-0.507-0.022-0.694s-0.053-0.34-0.114-0.457
		s-0.155-0.212-0.281-0.286s-0.301-0.139-0.523-0.198v-0.58h5.125c0.691,0,1.278,0.048,1.762,0.145s0.906,0.245,1.27,0.444
		c0.305,0.164,0.563,0.371,0.773,0.62s0.374,0.539,0.488,0.87s0.172,0.716,0.172,1.156c0,0.574-0.102,1.066-0.304,1.477
		s-0.475,0.751-0.817,1.024s-0.801,0.529-1.375,0.769v0.088c0.434,0.188,0.792,0.438,1.076,0.751s0.541,0.71,0.77,1.191l0.553,1.195
		c0.246,0.533,0.491,0.933,0.734,1.2s0.531,0.429,0.865,0.488v0.58h-3.383c-0.34-0.469-0.725-1.166-1.152-2.092l-0.686-1.503
		c-0.205-0.445-0.381-0.762-0.527-0.949s-0.297-0.316-0.452-0.387s-0.394-0.105-0.716-0.105h-0.51v2.83
		c0,0.439,0.02,0.747,0.061,0.923s0.121,0.316,0.238,0.422s0.334,0.199,0.65,0.281V24.333z M125.182,13.382v4.887h0.869
		c0.469,0,0.855-0.063,1.16-0.189s0.547-0.302,0.726-0.527s0.302-0.491,0.369-0.795s0.101-0.639,0.101-1.002
		c0-0.797-0.188-1.395-0.563-1.793s-0.932-0.598-1.67-0.598C125.67,13.364,125.34,13.37,125.182,13.382z"/>
	<path fill="#6D6E71" d="M133.329,23.753c0.287-0.076,0.485-0.176,0.594-0.299s0.182-0.29,0.22-0.501s0.058-0.595,0.058-1.151
		v-4.087c0-0.287-0.014-0.519-0.04-0.694s-0.076-0.316-0.149-0.422s-0.173-0.186-0.299-0.242s-0.289-0.104-0.488-0.145v-0.598
		l2.418-0.07h1.098v6.249c0,0.328,0.005,0.582,0.014,0.76s0.021,0.316,0.039,0.413s0.043,0.183,0.075,0.259s0.075,0.146,0.128,0.211
		s0.129,0.123,0.229,0.176s0.23,0.1,0.395,0.141v0.58h-4.289V23.753z M136.668,12.107v2.153h-2.408v-2.153H136.668z"/>
	<path fill="#6D6E71" d="M143.26,24.474c-0.861,0-1.604-0.151-2.228-0.453s-1.112-0.785-1.464-1.45s-0.527-1.51-0.527-2.536
		c0-0.785,0.109-1.465,0.326-2.039s0.518-1.049,0.904-1.424s0.849-0.652,1.385-0.831s1.117-0.268,1.744-0.268
		c1.418,0,2.488,0.374,3.209,1.121s1.08,1.841,1.08,3.283c0,1.02-0.178,1.874-0.535,2.562s-0.867,1.2-1.529,1.534
		S144.174,24.474,143.26,24.474z M141.713,19.842c0,1.242,0.14,2.172,0.418,2.791s0.699,0.927,1.262,0.927
		c0.311,0,0.569-0.079,0.777-0.237s0.375-0.387,0.501-0.686s0.216-0.658,0.269-1.077s0.078-0.889,0.078-1.411
		c0-1.26-0.139-2.202-0.417-2.826s-0.69-0.936-1.235-0.936c-0.398,0-0.717,0.126-0.957,0.378s-0.416,0.63-0.527,1.134
		S141.713,19.051,141.713,19.842z"/>
	<path fill="#6D6E71" d="M79.294,43.78c0.381,0,0.665-0.028,0.853-0.083s0.335-0.152,0.444-0.29s0.198-0.344,0.268-0.62h1.011
		l-0.202,3.146h-8.051v-0.58c0.246-0.563,0.602-1.175,1.068-1.837s1.033-1.386,1.701-2.171c0.633-0.744,1.115-1.356,1.446-1.837
		s0.579-0.935,0.743-1.362s0.246-0.87,0.246-1.327c0-0.645-0.144-1.15-0.431-1.516s-0.68-0.549-1.178-0.549
		c-0.469,0-0.857,0.166-1.165,0.497s-0.532,0.854-0.672,1.569h-1.582v-2.074c0.715-0.287,1.274-0.488,1.679-0.602
		s0.804-0.201,1.2-0.259s0.825-0.088,1.288-0.088c0.861,0,1.564,0.116,2.109,0.347s0.939,0.545,1.182,0.94s0.365,0.857,0.365,1.384
		c0,0.463-0.086,0.894-0.259,1.292s-0.472,0.853-0.896,1.362s-1.141,1.239-2.149,2.188c-0.451,0.439-0.873,0.883-1.266,1.332
		s-0.683,0.798-0.87,1.05v0.088H79.294z"/>
	<path fill="#6D6E71" d="M88.549,46.074c-0.914,0-1.68-0.201-2.298-0.602s-1.094-1.05-1.428-1.947s-0.501-2.057-0.501-3.48
		c0-1.342,0.17-2.477,0.51-3.406s0.839-1.635,1.499-2.118s1.452-0.725,2.377-0.725c1.441,0,2.517,0.491,3.226,1.472
		s1.063,2.483,1.063,4.504c0,2.074-0.376,3.643-1.129,4.707S90.008,46.074,88.549,46.074z M86.993,39.79
		c0,1.289,0.057,2.314,0.171,3.076s0.294,1.323,0.541,1.683s0.574,0.541,0.984,0.541c0.223,0,0.417-0.054,0.584-0.163
		s0.316-0.278,0.448-0.51s0.245-0.539,0.338-0.923s0.161-0.861,0.202-1.433s0.062-1.208,0.062-1.912c0-1.049-0.04-1.931-0.119-2.646
		s-0.192-1.266-0.338-1.652s-0.319-0.662-0.519-0.826s-0.431-0.246-0.694-0.246c-0.311,0-0.573,0.103-0.787,0.308
		s-0.385,0.516-0.514,0.932s-0.221,0.938-0.277,1.564S86.993,38.946,86.993,39.79z"/>
	<path fill="#6D6E71" d="M101.038,43.481c0,0.34,0.02,0.596,0.058,0.769s0.105,0.313,0.202,0.422s0.236,0.193,0.418,0.255
		s0.41,0.108,0.686,0.141s0.639,0.054,1.09,0.066v0.8h-7.586v-0.8c0.65-0.029,1.115-0.069,1.394-0.119s0.491-0.125,0.638-0.224
		s0.253-0.24,0.32-0.422s0.102-0.478,0.102-0.888v-6.354c0-0.24-0.046-0.413-0.137-0.519s-0.215-0.158-0.373-0.158
		c-0.146,0-0.354,0.067-0.62,0.202s-0.704,0.41-1.313,0.826l-0.537-0.932l4.588-2.751h1.125c-0.035,0.563-0.053,1.342-0.053,2.338
		V43.481z"/>
	<path fill="#6D6E71" d="M106.03,45.388v-2.197h1.592c0.146,0.639,0.381,1.115,0.703,1.428s0.738,0.47,1.248,0.47
		c0.639,0,1.109-0.198,1.414-0.593s0.457-1.006,0.457-1.833c0-0.814-0.195-1.436-0.588-1.863s-0.961-0.642-1.705-0.642
		c-0.287,0-0.597,0.026-0.928,0.079s-0.625,0.117-0.883,0.193l-0.791-0.492v-6.003h5.193c0.217,0,0.375-0.015,0.475-0.044
		s0.182-0.079,0.246-0.149s0.135-0.199,0.211-0.387h0.967l-0.176,2.804h-5.396v3.164c0.352-0.105,0.711-0.183,1.077-0.233
		s0.815-0.075,1.349-0.075c0.727,0,1.364,0.135,1.912,0.404s0.973,0.661,1.274,1.173s0.452,1.115,0.452,1.806
		c0,0.809-0.182,1.487-0.545,2.035s-0.887,0.958-1.572,1.23s-1.506,0.409-2.461,0.409c-0.615,0-1.242-0.062-1.881-0.185
		S106.487,45.599,106.03,45.388z"/>
</g>
<rect y="64" fill="none" width="185" height="60"/>
<path fill="#6D6E71" d="M10.327,117.061c0,1.191-1.29,2.156-2.882,2.156l0,0c-1.592,0-2.882-0.965-2.882-2.156V70.882
	c0-1.191,1.29-2.157,2.882-2.157l0,0c1.592,0,2.882,0.966,2.882,2.157V117.061z"/>
<rect x="6.815" y="68.725" fill="#6D6E71" width="13.541" height="5.879"/>
<rect x="6.931" y="113.454" fill="#6D6E71" width="13.54" height="5.879"/>
<path fill="#6D6E71" d="M58.284,70.94c0-1.192,1.291-2.158,2.883-2.158l0,0c1.591,0,2.881,0.966,2.881,2.158v46.178
	c0,1.191-1.29,2.158-2.881,2.158l0,0c-1.592,0-2.883-0.967-2.883-2.158V70.94z"/>
<rect x="48.254" y="113.396" fill="#6D6E71" width="13.541" height="5.88"/>
<rect x="48.139" y="68.667" fill="#6D6E71" width="13.541" height="5.879"/>
<rect x="44.219" y="79.158" fill="#6D6E71" width="8.818" height="30.435"/>
<rect x="15.947" y="78.734" fill="#6D6E71" width="8.819" height="30.685"/>
<polygon fill="#6D6E71" points="30.472,83.826 39.292,83.826 52.952,109.418 43.959,109.418 "/>
<polygon fill="#6D6E71" points="39.292,83.826 29.608,83.826 15.947,109.418 24.938,109.418 "/>
<g>
	<path fill="#6D6E71" d="M86.932,79.351c0.082-0.27,0.152-0.541,0.211-0.813s0.088-0.505,0.088-0.699
		c0-0.305-0.075-0.529-0.224-0.672s-0.374-0.227-0.672-0.25v-0.58h3.665v0.58c-0.217,0.047-0.398,0.13-0.545,0.25
		s-0.278,0.289-0.396,0.505s-0.264,0.58-0.439,1.09l-3.296,9.633h-2.092l-1.986-8.253l-2.355,8.253h-2.197l-2.646-9.844
		c-0.129-0.48-0.243-0.814-0.343-1.002s-0.211-0.328-0.334-0.422s-0.278-0.164-0.466-0.211v-0.58h4.729v0.58
		c-0.305,0.035-0.53,0.12-0.677,0.255s-0.22,0.325-0.22,0.571c0,0.311,0.085,0.794,0.255,1.45l1.521,6.108l2.522-8.965h1.986
		l2.057,8.965L86.932,79.351z"/>
	<path fill="#6D6E71" d="M93.304,88.333v-0.58c0.246-0.041,0.441-0.095,0.584-0.163s0.251-0.163,0.321-0.286s0.113-0.28,0.131-0.47
		s0.027-0.426,0.027-0.708v-8.763h-0.713c-0.351,0-0.621,0.041-0.808,0.123s-0.35,0.211-0.488,0.387s-0.256,0.412-0.356,0.708
		s-0.182,0.576-0.246,0.839h-1.204v-3.085h10.344v3.085h-1.203c-0.111-0.398-0.199-0.691-0.264-0.879s-0.137-0.347-0.216-0.479
		s-0.163-0.242-0.251-0.33s-0.182-0.158-0.281-0.211s-0.224-0.092-0.373-0.119s-0.344-0.04-0.584-0.04h-0.633v8.763
		c0,0.311,0.008,0.546,0.025,0.708s0.051,0.292,0.098,0.391s0.104,0.18,0.171,0.242s0.161,0.117,0.281,0.167
		s0.282,0.089,0.487,0.119v0.58H93.304z"/>
	<path fill="#6D6E71" d="M115.856,76.916c-0.311,0.088-0.521,0.183-0.633,0.286s-0.188,0.24-0.232,0.413s-0.066,0.479-0.066,0.918
		v7.603c0,0.357,0.018,0.64,0.053,0.848s0.107,0.366,0.216,0.475s0.329,0.207,0.663,0.294v0.58h-4.508v-0.58
		c0.258-0.07,0.436-0.132,0.535-0.185s0.178-0.122,0.233-0.207s0.097-0.214,0.123-0.387s0.04-0.458,0.04-0.857v-4.307
		c0-0.475,0.008-1.034,0.025-1.679s0.035-1.102,0.053-1.371h-0.184c-0.07,0.234-0.146,0.464-0.225,0.69s-0.227,0.628-0.443,1.208
		l-2.355,6.346h-1.547l-2.479-7.128c-0.146-0.404-0.275-0.806-0.387-1.204h-0.158c0.059,0.967,0.088,2.109,0.088,3.428v4.043
		c0,0.434,0.02,0.735,0.061,0.905s0.123,0.311,0.246,0.422s0.338,0.205,0.643,0.281v0.58h-3.322v-0.58
		c0.217-0.059,0.388-0.123,0.514-0.193s0.221-0.164,0.285-0.281s0.104-0.267,0.119-0.448s0.021-0.413,0.021-0.694v-7.603
		c0-0.445-0.019-0.75-0.057-0.914s-0.113-0.299-0.225-0.404s-0.33-0.205-0.658-0.299v-0.58h4.367l2.436,7.216l2.637-7.216h4.121
		V76.916z"/>
	<path fill="#6D6E71" d="M126.131,88.333h-4.615v-0.58c0.217-0.059,0.389-0.122,0.515-0.189s0.22-0.161,0.281-0.281
		s0.101-0.272,0.118-0.457s0.027-0.417,0.027-0.699v-7.576c0-0.275-0.008-0.507-0.022-0.694s-0.053-0.34-0.114-0.457
		s-0.155-0.212-0.281-0.286s-0.301-0.139-0.523-0.198v-0.58h5.125c0.691,0,1.278,0.048,1.762,0.145s0.906,0.245,1.27,0.444
		c0.305,0.164,0.563,0.371,0.773,0.62s0.374,0.539,0.488,0.87s0.172,0.716,0.172,1.156c0,0.574-0.102,1.066-0.304,1.477
		s-0.475,0.751-0.817,1.024s-0.801,0.529-1.375,0.769v0.088c0.434,0.188,0.792,0.438,1.076,0.751s0.541,0.71,0.77,1.191l0.553,1.195
		c0.246,0.533,0.491,0.933,0.734,1.2s0.531,0.429,0.865,0.488v0.58h-3.383c-0.34-0.469-0.725-1.166-1.152-2.092l-0.686-1.503
		c-0.205-0.445-0.381-0.762-0.527-0.949s-0.297-0.316-0.452-0.387s-0.394-0.105-0.716-0.105h-0.51v2.83
		c0,0.439,0.02,0.747,0.061,0.923s0.121,0.316,0.238,0.422s0.334,0.199,0.65,0.281V88.333z M125.182,77.382v4.887h0.869
		c0.469,0,0.855-0.063,1.16-0.189s0.547-0.302,0.726-0.527s0.302-0.491,0.369-0.795s0.101-0.639,0.101-1.002
		c0-0.797-0.188-1.395-0.563-1.793s-0.932-0.598-1.67-0.598C125.67,77.364,125.34,77.37,125.182,77.382z"/>
	<path fill="#6D6E71" d="M133.329,87.753c0.287-0.076,0.485-0.176,0.594-0.299s0.182-0.29,0.22-0.501s0.058-0.595,0.058-1.151
		v-4.087c0-0.287-0.014-0.519-0.04-0.694s-0.076-0.316-0.149-0.422s-0.173-0.186-0.299-0.242s-0.289-0.104-0.488-0.145v-0.598
		l2.418-0.07h1.098v6.249c0,0.328,0.005,0.582,0.014,0.76s0.021,0.316,0.039,0.413s0.043,0.183,0.075,0.259s0.075,0.146,0.128,0.211
		s0.129,0.123,0.229,0.176s0.23,0.1,0.395,0.141v0.58h-4.289V87.753z M136.668,76.107v2.153h-2.408v-2.153H136.668z"/>
	<path fill="#6D6E71" d="M143.26,88.474c-0.861,0-1.604-0.151-2.228-0.453s-1.112-0.785-1.464-1.45s-0.527-1.51-0.527-2.536
		c0-0.785,0.109-1.465,0.326-2.039s0.518-1.049,0.904-1.424s0.849-0.652,1.385-0.831s1.117-0.268,1.744-0.268
		c1.418,0,2.488,0.374,3.209,1.121s1.08,1.841,1.08,3.283c0,1.02-0.178,1.874-0.535,2.562s-0.867,1.2-1.529,1.534
		S144.174,88.474,143.26,88.474z M141.713,83.842c0,1.242,0.14,2.172,0.418,2.791s0.699,0.927,1.262,0.927
		c0.311,0,0.569-0.079,0.777-0.237s0.375-0.387,0.501-0.686s0.216-0.658,0.269-1.077s0.078-0.889,0.078-1.411
		c0-1.26-0.139-2.202-0.417-2.826s-0.69-0.936-1.235-0.936c-0.398,0-0.717,0.126-0.957,0.378s-0.416,0.63-0.527,1.134
		S141.713,83.051,141.713,83.842z"/>
	<path fill="#6D6E71" d="M79.294,107.78c0.381,0,0.665-0.027,0.853-0.084c0.188-0.055,0.335-0.152,0.444-0.289
		c0.108-0.139,0.198-0.345,0.268-0.62h1.011l-0.202,3.146h-8.051v-0.58c0.246-0.563,0.602-1.175,1.068-1.837
		s1.033-1.386,1.701-2.171c0.633-0.744,1.115-1.356,1.446-1.837s0.579-0.935,0.743-1.362s0.246-0.87,0.246-1.327
		c0-0.645-0.144-1.15-0.431-1.516c-0.287-0.367-0.68-0.55-1.178-0.55c-0.469,0-0.857,0.165-1.165,0.497
		c-0.308,0.33-0.532,0.854-0.672,1.568h-1.582v-2.074c0.715-0.287,1.274-0.488,1.679-0.602c0.404-0.115,0.804-0.201,1.2-0.26
		s0.825-0.088,1.288-0.088c0.861,0,1.564,0.115,2.109,0.348c0.545,0.23,0.939,0.545,1.182,0.939
		c0.243,0.396,0.365,0.857,0.365,1.385c0,0.463-0.086,0.894-0.259,1.292s-0.472,0.853-0.896,1.362s-1.141,1.239-2.149,2.188
		c-0.451,0.439-0.873,0.884-1.266,1.331c-0.393,0.449-0.683,0.799-0.87,1.051v0.088H79.294z"/>
	<path fill="#6D6E71" d="M88.549,110.074c-0.914,0-1.68-0.2-2.298-0.603c-0.618-0.4-1.094-1.05-1.428-1.946s-0.501-2.057-0.501-3.48
		c0-1.342,0.17-2.478,0.51-3.405c0.34-0.93,0.839-1.635,1.499-2.119c0.659-0.482,1.452-0.725,2.377-0.725
		c1.441,0,2.517,0.49,3.226,1.473c0.709,0.98,1.063,2.482,1.063,4.504c0,2.074-0.376,3.643-1.129,4.707
		C91.114,109.542,90.008,110.074,88.549,110.074z M86.993,103.79c0,1.289,0.057,2.314,0.171,3.076s0.294,1.322,0.541,1.684
		c0.246,0.359,0.574,0.54,0.984,0.54c0.223,0,0.417-0.054,0.584-0.163c0.167-0.107,0.316-0.277,0.448-0.51
		c0.132-0.23,0.245-0.539,0.338-0.922c0.094-0.385,0.161-0.861,0.202-1.434c0.041-0.57,0.062-1.208,0.062-1.911
		c0-1.049-0.04-1.931-0.119-2.646s-0.192-1.266-0.338-1.652s-0.319-0.662-0.519-0.826s-0.431-0.246-0.694-0.246
		c-0.311,0-0.573,0.103-0.787,0.308s-0.385,0.516-0.514,0.932s-0.221,0.938-0.277,1.564S86.993,102.946,86.993,103.79z"/>
	<path fill="#6D6E71" d="M101.038,107.481c0,0.34,0.02,0.596,0.058,0.77c0.038,0.172,0.105,0.313,0.202,0.422
		c0.097,0.107,0.236,0.193,0.418,0.254c0.182,0.063,0.41,0.109,0.686,0.141c0.275,0.033,0.639,0.055,1.09,0.066v0.8h-7.586v-0.8
		c0.65-0.029,1.115-0.068,1.394-0.119c0.278-0.049,0.491-0.124,0.638-0.224s0.253-0.24,0.32-0.422s0.102-0.478,0.102-0.888v-6.354
		c0-0.24-0.046-0.413-0.137-0.519s-0.215-0.158-0.373-0.158c-0.146,0-0.354,0.067-0.62,0.202s-0.704,0.41-1.313,0.826l-0.537-0.932
		l4.588-2.751h1.125c-0.035,0.563-0.053,1.342-0.053,2.338V107.481z"/>
	<path fill="#6D6E71" d="M106.03,109.388v-2.197h1.592c0.146,0.639,0.381,1.114,0.703,1.429c0.322,0.313,0.738,0.47,1.248,0.47
		c0.639,0,1.109-0.198,1.414-0.593c0.305-0.396,0.457-1.007,0.457-1.833c0-0.814-0.195-1.436-0.588-1.863s-0.961-0.642-1.705-0.642
		c-0.287,0-0.597,0.026-0.928,0.079s-0.625,0.117-0.883,0.193l-0.791-0.492v-6.003h5.193c0.217,0,0.375-0.015,0.475-0.044
		s0.182-0.079,0.246-0.149s0.135-0.199,0.211-0.387h0.967l-0.176,2.804h-5.396v3.164c0.352-0.105,0.711-0.183,1.077-0.233
		c0.366-0.049,0.815-0.074,1.349-0.074c0.727,0,1.364,0.135,1.912,0.404s0.973,0.66,1.274,1.174
		c0.302,0.512,0.452,1.114,0.452,1.806c0,0.809-0.182,1.487-0.545,2.034c-0.363,0.549-0.887,0.959-1.572,1.23
		c-0.686,0.273-1.506,0.409-2.461,0.409c-0.615,0-1.242-0.062-1.881-0.185S106.487,109.599,106.03,109.388z"/>
</g>
</svg>
